<svg width="350" height="50" viewBox="0 0 350 50" fill="none" xmlns="http://www.w3.org/2000/svg">
<path d="M52.6982 6.33359C52.6982 6.04174 52.7357 5.77599 52.8128 5.53633C52.8888 5.29667 52.9925 5.09567 53.1209 4.93332C53.2493 4.77096 53.4014 4.63374 53.5763 4.52164C53.7511 4.40954 53.9338 4.32837 54.1255 4.27811C54.3171 4.22786 54.5156 4.2037 54.7221 4.2037H54.887V3.63354H55.5103V4.20274H55.6673C55.8747 4.20274 56.0743 4.22786 56.2659 4.27715C56.4575 4.3274 56.6412 4.40761 56.816 4.51874C56.9909 4.62987 57.144 4.7671 57.2744 4.92848C57.4047 5.09083 57.5085 5.29184 57.5845 5.53343C57.6606 5.77406 57.7001 6.04078 57.7001 6.33262C57.7001 6.69501 57.6457 7.01681 57.5351 7.29899C57.4255 7.58117 57.2744 7.8073 57.0827 7.97642C56.8911 8.1465 56.6748 8.27406 56.4348 8.36007C56.1938 8.44608 55.936 8.48956 55.6604 8.48956H55.5113V9.15636H54.888V8.48956H54.73C54.4544 8.48956 54.1966 8.44704 53.9566 8.362C53.7165 8.27696 53.5022 8.15037 53.3116 7.98029C53.1209 7.8102 52.9718 7.58504 52.8621 7.30286C52.7525 7.02164 52.6982 6.69791 52.6982 6.33359ZM53.3481 6.31813C53.3481 6.8477 53.4745 7.24971 53.7274 7.52416C53.9803 7.79861 54.3112 7.93583 54.7221 7.93583H54.887V4.75357H54.73C54.3191 4.75357 53.9862 4.88596 53.7304 5.15075C53.4755 5.41457 53.3481 5.80402 53.3481 6.31813ZM55.5113 7.93583H55.6762C56.0881 7.93583 56.42 7.79861 56.6718 7.52416C56.9237 7.24971 57.0501 6.8477 57.0501 6.31813C57.0501 5.80402 56.9227 5.41457 56.6689 5.14978C56.414 4.885 56.0802 4.7526 55.6693 4.7526H55.5122L55.5113 7.93583Z" fill="#3A3845"/>
<path d="M58.6796 9.15733V3.63354H61.5074V4.18728H59.3028V5.98183H61.3662V6.53556H59.3028V8.60649H61.5154V9.15733H58.6796Z" fill="#3A3845"/>
<path d="M62.0497 8.60649H62.425C62.672 8.18516 62.8339 7.71453 62.909 7.19656C62.9851 6.67858 63.0226 5.96153 63.0226 5.04541V3.63354H66.0115V8.60649H66.4599V10.4455H65.8633V9.15733H62.6482V10.4455H62.0517V8.60649H62.0497ZM63.0977 8.60649H65.3872V4.18824H63.6459V5.62234C63.6459 6.88055 63.4631 7.87495 63.0977 8.60649Z" fill="#3A3845"/>
<path d="M67.2177 9.15733V3.63354H70.0466V4.18728H67.842V5.98183H69.9043V6.53556H67.842V8.60649H70.0535V9.15733H67.2177Z" fill="#3A3845"/>
<path d="M71.0117 9.15733V3.63354H72.5772C73.1106 3.63354 73.5274 3.76111 73.8287 4.01719C74.1289 4.27328 74.2801 4.66466 74.2801 5.19134C74.2801 5.44356 74.2495 5.66486 74.1862 5.85427C74.123 6.04368 74.0401 6.19926 73.9334 6.32103C73.8277 6.44182 73.6953 6.54039 73.5373 6.6148C73.3783 6.68921 73.2133 6.74236 73.0395 6.77232C72.8666 6.80228 72.672 6.81677 72.4577 6.81677H71.6349V9.15733H71.0117ZM71.6359 6.26594H72.2483C72.4034 6.26594 72.5377 6.26111 72.6503 6.25145C72.7619 6.24178 72.8745 6.22342 72.9871 6.19733C73.0987 6.17124 73.1916 6.13355 73.2647 6.0833C73.3368 6.03305 73.403 5.96927 73.4622 5.89002C73.5205 5.81175 73.564 5.71414 73.5906 5.59818C73.6173 5.48221 73.6311 5.34692 73.6311 5.1923C73.6311 4.82025 73.5314 4.5603 73.3318 4.41147C73.1333 4.26265 72.8321 4.18824 72.4291 4.18824H71.6369L71.6359 6.26594Z" fill="#3A3845"/>
<path d="M74.2997 9.15733L75.9067 3.63354H76.7374L78.3178 9.15636H77.6293L77.1809 7.56958H75.401L74.9881 9.15733H74.2997ZM75.5502 7.01875H77.0426L76.3117 4.07904H76.2959L75.5502 7.01875Z" fill="#3A3845"/>
<path d="M78.5585 9.17955V8.63645C78.6326 8.66158 78.7126 8.67414 78.7995 8.67414C78.8706 8.67414 78.9348 8.66158 78.9931 8.63645C79.0504 8.61133 79.1007 8.56881 79.1442 8.50889C79.1877 8.44898 79.2242 8.38326 79.2548 8.31079C79.2854 8.23831 79.3111 8.14167 79.3309 8.02087C79.3516 7.90008 79.3684 7.77928 79.3813 7.65945C79.3941 7.53962 79.404 7.38693 79.4099 7.20042C79.4168 7.01488 79.4208 6.83707 79.4227 6.66892C79.4247 6.50077 79.4267 6.293 79.4267 6.04561V3.63354H82.5776V9.15636H81.9543V4.18824H80.0519V6.37514C80.0519 6.54716 80.0519 6.68921 80.05 6.80228C80.048 6.91438 80.044 7.0574 80.0361 7.23135C80.0292 7.40529 80.0183 7.55025 80.0055 7.66815C79.9927 7.78605 79.9729 7.9194 79.9462 8.07016C79.9196 8.22091 79.888 8.34654 79.8514 8.44704C79.8149 8.54658 79.7675 8.65095 79.7112 8.75822C79.6539 8.86548 79.5897 8.95052 79.5176 9.01237C79.4455 9.07519 79.3595 9.1264 79.2617 9.16602C79.164 9.20565 79.0543 9.22594 78.9348 9.22594C78.8084 9.22401 78.6839 9.20951 78.5585 9.17955Z" fill="#3A3845"/>
<path d="M83.7538 9.15733V3.63354H84.378V5.98183H85.1238C85.3381 5.98183 85.5317 5.99632 85.7055 6.02628C85.8784 6.05624 86.0443 6.10842 86.2014 6.1838C86.3584 6.25821 86.4898 6.35581 86.5955 6.47565C86.7012 6.59548 86.7851 6.75009 86.8484 6.9395C86.9106 7.12891 86.9422 7.34924 86.9422 7.59857C86.9422 8.12814 86.793 8.51952 86.4948 8.77464C86.1965 9.0288 85.7816 9.15636 85.2512 9.15636L83.7538 9.15733ZM84.378 8.60649H85.0931C85.4932 8.60649 85.7935 8.53208 85.992 8.38326C86.1905 8.23444 86.2913 7.97352 86.2913 7.59857C86.2913 7.38113 86.2607 7.20139 86.2014 7.05933C86.1421 6.91728 86.0493 6.80808 85.9238 6.73367C85.7984 6.65926 85.6571 6.60707 85.4991 6.57808C85.3411 6.54909 85.1455 6.53556 84.9134 6.53556H84.378V8.60649Z" fill="#3A3845"/>
<path d="M87.9237 9.15733V3.63354H88.547V5.98183H90.7052V3.63354H91.3284V9.15636H90.7052V6.53556H88.547V9.15636L87.9237 9.15733Z" fill="#3A3845"/>
<path d="M92.3534 6.38951C92.3534 6.18754 92.3583 6.00103 92.3692 5.82998C92.3791 5.65894 92.4008 5.47339 92.4344 5.27239C92.467 5.07138 92.5114 4.89067 92.5667 4.73122C92.6211 4.57177 92.6961 4.41425 92.791 4.25963C92.8848 4.10501 92.9954 3.97552 93.1219 3.87211C93.2483 3.76871 93.4043 3.68561 93.591 3.62279C93.7767 3.56094 93.9832 3.52905 94.2103 3.52905C94.3891 3.52905 94.5551 3.54838 94.7082 3.58703C94.8613 3.62569 94.9956 3.67787 95.1121 3.74455C95.2277 3.81027 95.3334 3.89338 95.4282 3.99194C95.522 4.09051 95.603 4.19488 95.6692 4.30408C95.7354 4.41425 95.7927 4.53795 95.8421 4.67614C95.8905 4.81529 95.929 4.95059 95.9586 5.08491C95.9863 5.21827 96.01 5.36323 96.0278 5.51881C96.0455 5.6744 96.0584 5.82032 96.0643 5.95658C96.0702 6.09284 96.0732 6.23683 96.0732 6.38951C96.0732 6.62917 96.0673 6.84371 96.0554 7.03312C96.0446 7.22253 96.0228 7.4216 95.9902 7.6284C95.9586 7.83617 95.9142 8.01688 95.8589 8.17344C95.8026 8.32999 95.7275 8.47978 95.6327 8.62473C95.5388 8.76969 95.4272 8.88855 95.2978 8.98229C95.1684 9.07603 95.0124 9.15044 94.8287 9.20552C94.6449 9.2606 94.4375 9.28766 94.2084 9.28766C93.9792 9.28766 93.7728 9.25964 93.589 9.20552C93.4053 9.15044 93.2493 9.07603 93.1219 8.98229C92.9944 8.88855 92.8838 8.76969 92.789 8.62473C92.6952 8.47978 92.6201 8.32902 92.5648 8.17344C92.5104 8.01785 92.466 7.83617 92.4324 7.6284C92.3998 7.4216 92.3781 7.22253 92.3672 7.03312C92.3583 6.84371 92.3534 6.62917 92.3534 6.38951ZM93.0043 6.28804C93.0043 6.63207 93.0132 6.92392 93.031 7.16261C93.0488 7.40131 93.0823 7.6255 93.1327 7.83617C93.1831 8.04684 93.2512 8.21499 93.3401 8.33772C93.428 8.46142 93.5436 8.55805 93.6878 8.62763C93.832 8.69721 94.0059 8.732 94.2103 8.732C94.3812 8.732 94.5304 8.70977 94.6588 8.66435C94.7862 8.6199 94.8948 8.54839 94.9847 8.45078C95.0736 8.35318 95.1477 8.24108 95.205 8.11352C95.2623 7.98596 95.3067 7.82554 95.3383 7.63227C95.3709 7.43899 95.3927 7.23895 95.4055 7.03118C95.4183 6.82438 95.4253 6.57796 95.4253 6.29384C95.4253 6.03196 95.4144 5.79616 95.3946 5.58646C95.3739 5.37676 95.3354 5.17478 95.2801 4.98151C95.2237 4.78824 95.1507 4.62685 95.0598 4.49832C94.9699 4.3698 94.8514 4.26736 94.7062 4.19102C94.561 4.11467 94.3911 4.07699 94.1965 4.07699C94.0078 4.07699 93.8429 4.11467 93.7026 4.19102C93.5624 4.26736 93.4488 4.36883 93.3599 4.49639C93.272 4.62395 93.2009 4.78437 93.1475 4.97764C93.0932 5.17092 93.0567 5.37192 93.0359 5.58066C93.0142 5.79133 93.0043 6.02616 93.0043 6.28804Z" fill="#3A3845"/>
<path d="M97.0975 9.15733V3.63354H99.9254V4.18728H97.7208V5.98183H99.7832V6.53556H97.7208V8.60649H99.9333V9.15733H97.0975Z" fill="#3A3845"/>
<path d="M102.771 9.15733V3.63354H105.419V4.18728H103.395V9.15636L102.771 9.15733Z" fill="#3A3845"/>
<path d="M105.957 6.38951C105.957 6.18754 105.962 6.00103 105.972 5.82998C105.982 5.65894 106.003 5.47339 106.037 5.27239C106.07 5.07138 106.114 4.89067 106.169 4.73122C106.224 4.57177 106.299 4.41425 106.392 4.25963C106.486 4.10501 106.598 3.97552 106.723 3.87211C106.85 3.76871 107.006 3.68561 107.193 3.62279C107.378 3.56094 107.586 3.52905 107.813 3.52905C107.991 3.52905 108.157 3.54838 108.31 3.58703C108.463 3.62569 108.597 3.67787 108.714 3.74455C108.83 3.81027 108.935 3.89338 109.03 3.99194C109.124 4.09051 109.205 4.19488 109.271 4.30408C109.337 4.41425 109.394 4.53795 109.443 4.67614C109.491 4.81529 109.531 4.95059 109.559 5.08491C109.589 5.21827 109.613 5.36323 109.63 5.51881C109.648 5.6744 109.66 5.82032 109.667 5.95658C109.674 6.09284 109.677 6.23683 109.677 6.38951C109.677 6.62917 109.671 6.84371 109.66 7.03312C109.648 7.22253 109.626 7.4216 109.595 7.6284C109.562 7.83617 109.519 8.01688 109.462 8.17344C109.406 8.32999 109.331 8.47978 109.237 8.62473C109.142 8.76969 109.031 8.88855 108.902 8.98229C108.773 9.07603 108.617 9.15044 108.433 9.20552C108.249 9.2606 108.043 9.28766 107.814 9.28766C107.585 9.28766 107.377 9.25964 107.194 9.20552C107.01 9.15044 106.855 9.07603 106.727 8.98229C106.599 8.88855 106.488 8.76969 106.394 8.62473C106.3 8.47978 106.226 8.32902 106.171 8.17344C106.116 8.01785 106.072 7.83617 106.039 7.6284C106.005 7.4216 105.984 7.22253 105.974 7.03312C105.962 6.84371 105.957 6.62917 105.957 6.38951ZM106.608 6.28804C106.608 6.63207 106.617 6.92392 106.634 7.16261C106.652 7.40131 106.686 7.6255 106.736 7.83617C106.786 8.04684 106.855 8.21499 106.943 8.33772C107.031 8.46142 107.147 8.55805 107.29 8.62763C107.435 8.69721 107.608 8.732 107.813 8.732C107.984 8.732 108.133 8.70977 108.26 8.66435C108.388 8.6199 108.496 8.54839 108.585 8.45078C108.675 8.35318 108.748 8.24108 108.806 8.11352C108.864 7.98596 108.908 7.82554 108.94 7.63227C108.971 7.43899 108.994 7.23895 109.007 7.03118C109.02 6.82438 109.026 6.57796 109.026 6.29384C109.026 6.03196 109.016 5.79616 108.995 5.58646C108.974 5.37676 108.936 5.17478 108.881 4.98151C108.824 4.78824 108.751 4.62685 108.66 4.49832C108.569 4.3698 108.452 4.26736 108.306 4.19102C108.161 4.11467 107.991 4.07699 107.797 4.07699C107.607 4.07699 107.443 4.11467 107.303 4.19102C107.163 4.26736 107.048 4.36883 106.96 4.49639C106.873 4.62395 106.801 4.78437 106.748 4.97764C106.695 5.17092 106.658 5.37192 106.637 5.58066C106.618 5.79133 106.608 6.02616 106.608 6.28804Z" fill="#3A3845"/>
<path d="M110.544 6.32597C110.544 6.13173 110.55 5.94812 110.562 5.77707C110.572 5.60602 110.595 5.42338 110.629 5.22817C110.661 5.03393 110.705 4.85708 110.759 4.70053C110.812 4.54301 110.886 4.38936 110.977 4.23957C111.069 4.08978 111.176 3.96415 111.297 3.86365C111.418 3.76218 111.566 3.68101 111.741 3.62013C111.916 3.55924 112.11 3.52832 112.325 3.52832C112.669 3.52832 112.965 3.60756 113.211 3.76605C113.457 3.92453 113.637 4.13424 113.754 4.39516C113.87 4.65608 113.929 4.95469 113.929 5.29195H113.304C113.304 4.4831 112.967 4.07915 112.29 4.07915C112.173 4.07915 112.065 4.09751 111.966 4.1352C111.867 4.17289 111.783 4.21928 111.711 4.27339C111.64 4.32848 111.576 4.40289 111.521 4.49566C111.464 4.5894 111.418 4.67927 111.383 4.76528C111.347 4.85128 111.317 4.95662 111.293 5.08225C111.27 5.20691 111.251 5.31418 111.238 5.40405C111.225 5.49392 111.216 5.60505 111.209 5.73745C111.203 5.86984 111.199 5.97034 111.198 6.03895C111.197 6.10757 111.196 6.19841 111.196 6.31051C111.196 6.49991 111.198 6.6642 111.202 6.80142C111.206 6.93865 111.215 7.09713 111.232 7.27688C111.249 7.45662 111.272 7.61028 111.301 7.73784C111.33 7.8654 111.372 7.99586 111.427 8.12922C111.482 8.26258 111.547 8.37081 111.622 8.45295C111.697 8.53509 111.791 8.60274 111.905 8.65492C112.018 8.70711 112.147 8.7332 112.29 8.7332C112.448 8.7332 112.585 8.70711 112.701 8.65492C112.817 8.60274 112.91 8.53413 112.981 8.44909C113.051 8.36405 113.109 8.25098 113.154 8.10796C113.2 7.9659 113.233 7.82384 113.254 7.68275C113.275 7.54166 113.291 7.36868 113.303 7.16381H113.928C113.91 7.50301 113.872 7.79485 113.817 8.03838C113.761 8.2819 113.675 8.50127 113.558 8.69744C113.443 8.89362 113.283 9.04051 113.079 9.13908C112.877 9.23765 112.63 9.28693 112.338 9.28693C112.109 9.28693 111.902 9.25407 111.716 9.18739C111.531 9.12071 111.377 9.03567 111.255 8.93034C111.132 8.82597 111.026 8.69165 110.935 8.52833C110.845 8.36501 110.775 8.20266 110.725 8.04128C110.674 7.87989 110.636 7.69242 110.608 7.47788C110.579 7.26335 110.562 7.07104 110.555 6.90096C110.548 6.73281 110.544 6.5405 110.544 6.32597Z" fill="#3A3845"/>
<path d="M114.44 3.63354H115.106L116.423 7.46811L117.629 3.63354H118.28L116.731 8.24121C116.6 8.63355 116.453 8.90703 116.29 9.05876C116.126 9.21144 115.925 9.28779 115.685 9.28779C115.478 9.28779 115.318 9.26363 115.207 9.21627V8.66544C115.297 8.7099 115.435 8.73309 115.624 8.73309C115.738 8.73309 115.832 8.69733 115.903 8.62486C115.975 8.55238 116.04 8.41515 116.102 8.21318L114.44 3.63354Z" fill="#3A3845"/>
<path d="M118.091 8.60649H118.466C118.713 8.18516 118.875 7.71453 118.95 7.19656C119.025 6.67858 119.064 5.96153 119.064 5.04541V3.63354H122.053V8.60649H122.5V10.4455H121.903V9.15733H118.688V10.4455H118.092L118.091 8.60649ZM119.14 8.60649H121.429V4.18824H119.688V5.62234C119.687 6.88055 119.504 7.87495 119.14 8.60649Z" fill="#3A3845"/>
<path d="M122.785 9.15734L124.392 3.63452H125.223L126.804 9.15734H126.116L125.667 7.56959H123.888L123.475 9.15734H122.785ZM124.037 7.01876H125.529L124.798 4.07905H124.783L124.037 7.01876Z" fill="#3A3845"/>
<path d="M127.516 9.15733V3.63354H129.081C129.615 3.63354 130.032 3.76111 130.333 4.01719C130.633 4.27328 130.784 4.66466 130.784 5.19134C130.784 5.44356 130.754 5.66486 130.69 5.85427C130.627 6.04368 130.544 6.19926 130.437 6.32103C130.332 6.44182 130.199 6.54039 130.041 6.6148C129.882 6.68921 129.717 6.74236 129.544 6.77232C129.371 6.80228 129.176 6.81677 128.962 6.81677H128.139V9.15733H127.516ZM128.139 6.26594H128.751C128.906 6.26594 129.041 6.26111 129.153 6.25145C129.265 6.24178 129.378 6.22342 129.49 6.19733C129.602 6.17124 129.695 6.13355 129.768 6.0833C129.84 6.03305 129.906 5.96927 129.965 5.89002C130.024 5.81175 130.067 5.71414 130.094 5.59818C130.12 5.48221 130.134 5.34692 130.134 5.1923C130.134 4.82025 130.034 4.5603 129.835 4.41147C129.636 4.26265 129.335 4.18824 128.932 4.18824H128.14V6.26594H128.139Z" fill="#3A3845"/>
<path d="M131.645 6.32597C131.645 6.13173 131.651 5.94812 131.661 5.77707C131.673 5.60602 131.695 5.42338 131.729 5.22817C131.761 5.03393 131.805 4.85708 131.859 4.70053C131.912 4.54301 131.985 4.38936 132.077 4.23957C132.169 4.08978 132.276 3.96415 132.396 3.86365C132.518 3.76218 132.666 3.68101 132.84 3.62013C133.015 3.55924 133.209 3.52832 133.423 3.52832C133.767 3.52832 134.064 3.60756 134.309 3.76605C134.556 3.92453 134.737 4.13424 134.854 4.39516C134.969 4.65608 135.028 4.95469 135.028 5.29195H134.404C134.404 4.4831 134.066 4.07915 133.39 4.07915C133.272 4.07915 133.165 4.09751 133.067 4.1352C132.968 4.17289 132.883 4.21928 132.812 4.27339C132.74 4.32848 132.677 4.40289 132.62 4.49566C132.564 4.5894 132.519 4.67927 132.483 4.76528C132.448 4.85128 132.418 4.95662 132.393 5.08225C132.369 5.20691 132.35 5.31418 132.338 5.40405C132.325 5.49392 132.315 5.60505 132.309 5.73745C132.302 5.86984 132.299 5.97034 132.298 6.03895C132.296 6.10757 132.296 6.19841 132.296 6.31051C132.296 6.49991 132.298 6.6642 132.302 6.80142C132.305 6.93865 132.316 7.09713 132.333 7.27688C132.349 7.45662 132.373 7.61028 132.401 7.73784C132.431 7.8654 132.473 7.99586 132.528 8.12922C132.582 8.26258 132.648 8.37081 132.722 8.45295C132.797 8.53509 132.892 8.60274 133.006 8.65492C133.119 8.70711 133.247 8.7332 133.39 8.7332C133.548 8.7332 133.685 8.70711 133.802 8.65492C133.917 8.60274 134.01 8.53413 134.08 8.44909C134.15 8.36405 134.209 8.25098 134.255 8.10796C134.301 7.9659 134.334 7.82384 134.355 7.68275C134.375 7.54166 134.392 7.36868 134.405 7.16381H135.029C135.011 7.50301 134.974 7.79485 134.917 8.03838C134.861 8.2819 134.775 8.50127 134.659 8.69744C134.543 8.89362 134.384 9.04051 134.18 9.13908C133.977 9.23765 133.731 9.28693 133.439 9.28693C133.21 9.28693 133.002 9.25407 132.817 9.18739C132.633 9.12265 132.479 9.03761 132.357 8.93227C132.234 8.8279 132.128 8.69358 132.038 8.53026C131.947 8.36694 131.877 8.20459 131.827 8.04321C131.777 7.88183 131.738 7.69435 131.711 7.47982C131.682 7.26528 131.665 7.07297 131.656 6.90289C131.649 6.73281 131.645 6.5405 131.645 6.32597Z" fill="#3A3845"/>
<path d="M135.534 4.18824V3.63354H139.082V4.18728H137.623V9.15636H137V4.18824H135.534Z" fill="#3A3845"/>
<path d="M139.786 9.15733V3.63354H141.268C141.78 3.63354 142.168 3.75627 142.427 4.0027C142.687 4.24912 142.817 4.58639 142.817 5.01546C142.817 5.3247 142.746 5.58658 142.603 5.80015C142.461 6.01372 142.257 6.15384 141.995 6.22149V6.23598C142.27 6.27077 142.502 6.40993 142.691 6.65346C142.88 6.89698 142.975 7.20429 142.975 7.57634C142.975 8.08852 142.834 8.47893 142.554 8.75048C142.273 9.02107 141.87 9.15733 141.345 9.15733H139.786ZM140.41 5.98183H141.188C141.517 5.98183 141.763 5.91225 141.925 5.77213C142.087 5.632 142.168 5.39234 142.168 5.05315C142.168 4.74874 142.09 4.52841 141.933 4.39215C141.778 4.25589 141.551 4.18824 141.252 4.18824H140.41V5.98183ZM140.41 8.60649H141.344C141.681 8.60649 141.928 8.52339 142.087 8.35717C142.245 8.19095 142.324 7.9281 142.324 7.56861C142.324 6.87959 141.979 6.53556 141.29 6.53556H140.41V8.60649Z" fill="#3A3845"/>
<path d="M143.963 9.15733V3.63354H146.792V4.18728H144.587V5.98183H146.65V6.53556H144.587V8.60649H146.799V9.15733H143.963Z" fill="#3A3845"/>
<path d="M147.757 9.15733V3.63354H148.38V5.98183H150.538V3.63354H151.162V9.15636H150.538V6.53556H148.38V9.15636L147.757 9.15733Z" fill="#3A3845"/>
<path d="M152.337 9.15733V3.63354H152.961V5.98183H155.119V3.63354H155.744V9.15636H155.119V6.53556H152.961V9.15636L152.337 9.15733Z" fill="#3A3845"/>
<path d="M156.767 6.38951C156.767 6.18754 156.772 6.00103 156.782 5.82998C156.792 5.65894 156.814 5.47339 156.848 5.27239C156.88 5.07138 156.925 4.89067 156.98 4.73122C157.034 4.57177 157.109 4.41425 157.203 4.25963C157.297 4.10501 157.409 3.97552 157.534 3.87211C157.661 3.76871 157.817 3.68561 158.003 3.62279C158.189 3.56094 158.396 3.52905 158.624 3.52905C158.801 3.52905 158.967 3.54838 159.12 3.58703C159.274 3.62569 159.408 3.67787 159.524 3.74455C159.641 3.81027 159.746 3.89338 159.84 3.99194C159.934 4.09051 160.015 4.19488 160.082 4.30408C160.148 4.41425 160.205 4.53795 160.253 4.67614C160.302 4.81529 160.341 4.95059 160.37 5.08491C160.4 5.21827 160.423 5.36323 160.441 5.51881C160.459 5.6744 160.471 5.82032 160.478 5.95658C160.484 6.09284 160.487 6.23683 160.487 6.38951C160.487 6.62917 160.482 6.84371 160.471 7.03312C160.459 7.22253 160.437 7.4216 160.405 7.6284C160.373 7.83617 160.329 8.01688 160.273 8.17344C160.217 8.32999 160.142 8.47978 160.048 8.62473C159.953 8.76969 159.841 8.88855 159.713 8.98229C159.584 9.07603 159.428 9.15044 159.244 9.20552C159.06 9.2606 158.854 9.28766 158.625 9.28766C158.395 9.28766 158.188 9.25964 158.004 9.20552C157.821 9.15044 157.665 9.07603 157.538 8.98229C157.41 8.88855 157.299 8.76969 157.205 8.62473C157.11 8.47978 157.036 8.32902 156.982 8.17344C156.927 8.01785 156.883 7.83617 156.85 7.6284C156.816 7.4216 156.794 7.22253 156.784 7.03312C156.772 6.84371 156.767 6.62917 156.767 6.38951ZM157.418 6.28804C157.418 6.63207 157.426 6.92392 157.444 7.16261C157.462 7.40131 157.496 7.6255 157.546 7.83617C157.595 8.04684 157.665 8.21499 157.752 8.33772C157.84 8.46142 157.957 8.55805 158.1 8.62763C158.244 8.69721 158.418 8.732 158.623 8.732C158.793 8.732 158.943 8.70977 159.07 8.66435C159.197 8.61893 159.306 8.54839 159.395 8.45078C159.484 8.35318 159.558 8.24108 159.615 8.11352C159.674 7.98596 159.718 7.82554 159.75 7.63227C159.781 7.43899 159.804 7.23895 159.817 7.03118C159.83 6.82438 159.836 6.57796 159.836 6.29384C159.836 6.03196 159.826 5.79616 159.805 5.58646C159.784 5.37676 159.746 5.17478 159.69 4.98151C159.634 4.78824 159.561 4.62685 159.47 4.49832C159.379 4.3698 159.262 4.26736 159.115 4.19102C158.97 4.11467 158.8 4.07699 158.607 4.07699C158.417 4.07699 158.253 4.11467 158.113 4.19102C157.973 4.26736 157.858 4.36883 157.77 4.49639C157.682 4.62395 157.611 4.78437 157.558 4.97764C157.504 5.17092 157.468 5.37192 157.447 5.58066C157.427 5.79133 157.418 6.02616 157.418 6.28804Z" fill="#3A3845"/>
<path d="M161.511 9.15733V3.63354H164.34V4.18728H162.135V5.98183H164.198V6.53556H162.135V8.60649H164.348V9.15733H161.511Z" fill="#3A3845"/>
<path d="M167.185 9.15733V3.63354H169.99V4.18728H167.809V5.98183H168.555C168.769 5.98183 168.964 5.99632 169.136 6.02628C169.31 6.05624 169.475 6.10842 169.632 6.1838C169.789 6.25821 169.921 6.35581 170.027 6.47565C170.133 6.59548 170.217 6.75009 170.279 6.9395C170.342 7.12891 170.373 7.34924 170.373 7.59857C170.373 8.12814 170.224 8.51952 169.926 8.77464C169.626 9.0288 169.212 9.15636 168.681 9.15636L167.185 9.15733ZM167.808 8.60649H168.523C168.923 8.60649 169.223 8.53208 169.422 8.38326C169.62 8.23444 169.721 7.97352 169.721 7.59857C169.721 7.38113 169.692 7.20139 169.631 7.05933C169.572 6.91728 169.479 6.80808 169.354 6.73367C169.229 6.65926 169.087 6.60707 168.929 6.57808C168.77 6.54909 168.575 6.53556 168.343 6.53556H167.808V8.60649Z" fill="#3A3845"/>
<path d="M171.354 9.1572V3.63342H171.979V5.9817H172.959C172.959 5.72948 172.975 5.49369 173.008 5.27432C173.041 5.05495 173.1 4.83462 173.186 4.61525C173.271 4.39589 173.382 4.20745 173.519 4.05186C173.655 3.89531 173.834 3.76968 174.054 3.67304C174.275 3.57737 174.529 3.52905 174.817 3.52905C175.047 3.52905 175.255 3.55998 175.442 3.62279C175.627 3.68561 175.784 3.76871 175.911 3.87211C176.037 3.97552 176.147 4.10501 176.242 4.25963C176.337 4.41425 176.41 4.57177 176.464 4.73122C176.517 4.89067 176.561 5.07138 176.593 5.27239C176.627 5.47339 176.649 5.65894 176.659 5.82998C176.669 6.00103 176.674 6.18754 176.674 6.38951C176.674 6.62917 176.669 6.84371 176.659 7.03312C176.649 7.22253 176.627 7.4216 176.593 7.6284C176.561 7.83617 176.516 8.01688 176.462 8.17344C176.407 8.32999 176.333 8.47978 176.238 8.62473C176.144 8.76969 176.032 8.88855 175.905 8.98229C175.778 9.07603 175.622 9.15044 175.439 9.20552C175.255 9.2606 175.048 9.28766 174.818 9.28766C174.597 9.28766 174.396 9.26157 174.216 9.21132C174.036 9.1601 173.882 9.09052 173.755 9.00162C173.627 8.91271 173.516 8.80158 173.42 8.66629C173.324 8.53196 173.247 8.38894 173.189 8.23915C173.129 8.08936 173.083 7.91735 173.048 7.72214C173.014 7.5279 172.99 7.33752 172.977 7.15101C172.965 6.9645 172.959 6.75963 172.959 6.53447H171.979V9.15527H171.354V9.1572ZM173.609 6.29578C173.609 6.57989 173.614 6.82631 173.626 7.03312C173.638 7.24089 173.659 7.44093 173.691 7.6342C173.723 7.82748 173.768 7.98789 173.823 8.11545C173.879 8.24301 173.952 8.35511 174.041 8.45272C174.13 8.55032 174.24 8.62087 174.368 8.66629C174.496 8.71171 174.647 8.73393 174.817 8.73393C174.988 8.73393 175.138 8.71171 175.266 8.66822C175.393 8.62473 175.501 8.55419 175.59 8.45658C175.678 8.35898 175.751 8.24688 175.808 8.11932C175.865 7.99176 175.91 7.83134 175.943 7.63807C175.974 7.44479 175.996 7.24475 176.008 7.03698C176.02 6.83018 176.025 6.58279 176.025 6.29578C176.025 6.03389 176.016 5.79809 175.995 5.58936C175.974 5.38062 175.937 5.17962 175.882 4.98634C175.827 4.79307 175.756 4.63168 175.666 4.50316C175.576 4.37463 175.46 4.27219 175.314 4.19392C175.169 4.11661 174.999 4.07795 174.805 4.07795C174.616 4.07795 174.451 4.11564 174.311 4.19198C174.171 4.26833 174.056 4.37076 173.968 4.49929C173.88 4.62782 173.808 4.7892 173.754 4.98248C173.698 5.17575 173.661 5.37772 173.64 5.58742C173.618 5.79809 173.609 6.03389 173.609 6.29578Z" fill="#3A3845"/>
<path d="M177.268 8.60649H177.643C177.89 8.18516 178.052 7.71453 178.127 7.19656C178.202 6.67858 178.241 5.96153 178.241 5.04541V3.63354H181.229V8.60649H181.677V10.4455H181.08V9.15733H177.865V10.4455H177.269V8.60649H177.268ZM178.316 8.60649H180.605V4.18824H178.864V5.62234C178.864 6.88055 178.681 7.87495 178.316 8.60649Z" fill="#3A3845"/>
<path d="M181.964 9.15733L183.821 5.94414L182.018 3.63354H182.802L184.854 6.47178V3.63354H185.478V6.47178L187.534 3.63354H188.318L186.515 5.94414L188.372 9.15733H187.644L186.137 6.42733L185.479 7.23231V9.15733H184.855V7.23231L184.197 6.42733L182.693 9.15733H181.964Z" fill="#3A3845"/>
<path d="M189.08 9.15733V3.63354H191.909V4.18728H189.704V5.98183H191.767V6.53556H189.704V8.60649H191.916V9.15733H189.08Z" fill="#3A3845"/>
<path d="M192.396 4.18824V3.63354H195.943V4.18728H194.485V9.15636H193.861V4.18824H192.396Z" fill="#3A3845"/>
<path d="M196.647 9.15733V3.63354H197.272V5.98183H199.43V3.63354H200.053V9.15636H199.43V6.53556H197.272V9.15636L196.647 9.15733Z" fill="#3A3845"/>
<path d="M201.07 6.38951C201.07 6.18754 201.075 6.00103 201.085 5.82998C201.095 5.65894 201.117 5.47339 201.15 5.27239C201.183 5.07138 201.227 4.89067 201.283 4.73122C201.337 4.57177 201.412 4.41425 201.506 4.25963C201.601 4.10501 201.711 3.97552 201.837 3.87211C201.963 3.76871 202.119 3.68561 202.306 3.62279C202.492 3.56094 202.699 3.52905 202.926 3.52905C203.105 3.52905 203.271 3.54838 203.424 3.58703C203.577 3.62569 203.712 3.67787 203.828 3.74455C203.944 3.81027 204.049 3.89338 204.144 3.99194C204.238 4.09051 204.319 4.19488 204.385 4.30408C204.451 4.41425 204.51 4.53795 204.558 4.67614C204.606 4.81529 204.646 4.95059 204.675 5.08491C204.703 5.21827 204.727 5.36323 204.746 5.51881C204.763 5.6744 204.775 5.82032 204.782 5.95658C204.788 6.09284 204.792 6.23683 204.792 6.38951C204.792 6.62917 204.786 6.84371 204.774 7.03312C204.762 7.22253 204.741 7.4216 204.709 7.6284C204.678 7.83617 204.633 8.01688 204.578 8.17344C204.521 8.32999 204.446 8.47978 204.352 8.62473C204.258 8.76969 204.145 8.88855 204.017 8.98229C203.887 9.07603 203.731 9.15044 203.548 9.20552C203.364 9.2606 203.157 9.28766 202.927 9.28766C202.698 9.28766 202.491 9.25964 202.307 9.20552C202.123 9.1514 201.968 9.07603 201.84 8.98229C201.712 8.88855 201.602 8.76969 201.507 8.62473C201.413 8.47978 201.338 8.32902 201.284 8.17344C201.228 8.01785 201.185 7.83617 201.151 7.6284C201.119 7.4216 201.097 7.22253 201.086 7.03312C201.075 6.84371 201.07 6.62917 201.07 6.38951ZM201.721 6.28804C201.721 6.63207 201.73 6.92392 201.748 7.16261C201.766 7.40131 201.799 7.6255 201.85 7.83617C201.899 8.04684 201.968 8.21499 202.056 8.33772C202.144 8.46142 202.26 8.55805 202.404 8.62763C202.548 8.69721 202.722 8.732 202.926 8.732C203.097 8.732 203.246 8.70977 203.374 8.66435C203.501 8.6199 203.61 8.54839 203.7 8.45078C203.79 8.35318 203.863 8.24108 203.92 8.11352C203.977 7.98596 204.022 7.82554 204.054 7.63227C204.086 7.43899 204.109 7.23895 204.121 7.03118C204.134 6.82438 204.14 6.57796 204.14 6.29384C204.14 6.03196 204.13 5.79616 204.11 5.58646C204.09 5.37676 204.051 5.17478 203.995 4.98151C203.939 4.78824 203.866 4.62685 203.775 4.49832C203.684 4.3698 203.566 4.26736 203.42 4.19102C203.275 4.11467 203.105 4.07699 202.911 4.07699C202.723 4.07699 202.558 4.11467 202.418 4.19102C202.277 4.26736 202.163 4.36883 202.075 4.49639C201.987 4.62395 201.916 4.78437 201.862 4.97764C201.809 5.17092 201.772 5.37192 201.751 5.58066C201.731 5.79133 201.721 6.02616 201.721 6.28804Z" fill="#3A3845"/>
<path d="M205.814 9.15733V3.63354H208.643V4.18728H206.439V5.98183H208.501V6.53556H206.439V8.60649H208.65V9.15733H205.814Z" fill="#3A3845"/>
<path d="M211.017 3.63354H211.682L212.999 7.46811L214.204 3.63354H214.855L213.306 8.24121C213.176 8.63355 213.03 8.90703 212.866 9.05876C212.702 9.21144 212.5 9.28779 212.26 9.28779C212.054 9.28779 211.894 9.26363 211.782 9.21627V8.66544C211.871 8.7099 212.01 8.73309 212.199 8.73309C212.313 8.73309 212.406 8.69733 212.478 8.62486C212.55 8.55238 212.616 8.41515 212.677 8.21318L211.017 3.63354Z" fill="#3A3845"/>
<path d="M215.398 5.10146V3.63354H216.023V5.02995C216.023 5.40394 216.094 5.65713 216.235 5.78662C216.377 5.91612 216.653 5.98086 217.062 5.98086C217.45 5.98086 217.761 5.96057 217.993 5.92095V3.63354H218.616V9.15636H217.993V6.46405C217.702 6.5114 217.348 6.53556 216.934 6.53556C216.68 6.53556 216.461 6.51237 216.279 6.46405C216.097 6.4167 215.938 6.33842 215.8 6.23019C215.664 6.12099 215.563 5.97313 215.496 5.78662C215.432 5.59915 215.398 5.37108 215.398 5.10146Z" fill="#3A3845"/>
<path d="M219.801 9.15733V3.63354H221.366C221.9 3.63354 222.318 3.76111 222.618 4.01719C222.919 4.27328 223.069 4.66466 223.069 5.19134C223.069 5.44356 223.038 5.66486 222.975 5.85427C222.913 6.04368 222.829 6.19926 222.722 6.32103C222.617 6.44182 222.484 6.54039 222.326 6.6148C222.168 6.68921 222.002 6.74236 221.829 6.77232C221.655 6.80228 221.461 6.81677 221.247 6.81677H220.424V9.15733H219.801ZM220.425 6.26594H221.037C221.192 6.26594 221.327 6.26111 221.439 6.25145C221.552 6.24178 221.664 6.22342 221.776 6.19733C221.889 6.17124 221.981 6.13355 222.054 6.0833C222.126 6.03305 222.192 5.96927 222.25 5.89002C222.31 5.81175 222.352 5.71414 222.379 5.59818C222.405 5.48221 222.419 5.34692 222.419 5.1923C222.419 4.82025 222.32 4.5603 222.121 4.41147C221.922 4.26265 221.621 4.18824 221.218 4.18824H220.426L220.425 6.26594Z" fill="#3A3845"/>
<path d="M224.087 9.15733V3.63354H226.916V4.18728H224.711V5.98183H226.774V6.53556H224.711V8.60649H226.923V9.15733H224.087Z" fill="#3A3845"/>
<path d="M227.409 9.15733L229.266 5.94414L227.463 3.63354H228.248L230.299 6.47178V3.63354H230.924V6.47178L232.979 3.63354H233.763L231.961 5.94414L233.818 9.15733H233.09L231.582 6.42733L230.925 7.23231V9.15733H230.3V7.23231L229.642 6.42733L228.138 9.15733H227.409Z" fill="#3A3845"/>
<path d="M234.095 8.60649H234.47C234.717 8.18516 234.879 7.71453 234.954 7.19656C235.029 6.67858 235.068 5.96153 235.068 5.04541V3.63354H238.057V8.60649H238.504V10.4455H237.907V9.15733H234.692V10.4455H234.096V8.60649H234.095ZM235.144 8.60649H237.433V4.18824H235.692V5.62234C235.691 6.88055 235.508 7.87495 235.144 8.60649Z" fill="#3A3845"/>
<path d="M239.263 9.15733V3.63354H242.092V4.18728H239.887V5.98183H241.949V6.53556H239.887V8.60649H242.098V9.15733H239.263Z" fill="#3A3845"/>
<path d="M243.057 9.15733V3.63354H243.681V5.98183H245.839V3.63354H246.462V9.15636H245.839V6.53556H243.681V9.15636L243.057 9.15733Z" fill="#3A3845"/>
<path d="M247.644 9.15732V3.63353H248.268V8.14553C248.268 8.29048 248.263 8.49535 248.252 8.75917H248.268C248.286 8.70409 248.305 8.62871 248.329 8.53207C248.352 8.4364 248.376 8.34557 248.401 8.26052C248.427 8.17548 248.458 8.08851 248.497 7.99864L250.253 3.63257H251.156V9.15538H250.533V4.75356C250.533 4.56125 250.538 4.281 250.548 3.91088H250.533C250.467 4.31289 250.393 4.61247 250.314 4.80961L248.549 9.15732H247.644Z" fill="#3A3845"/>
<path d="M252.333 9.15733V3.63354H255.162V4.18728H252.957V5.98183H255.02V6.53556H252.957V8.60649H255.169V9.15733H252.333Z" fill="#3A3845"/>
<path d="M54.2889 18.481V19.6677L53.1343 20.4137L54.2889 21.3965V22.6054L52.5683 21.0573V19.9044L54.2889 18.481ZM56.38 19.6677L55.2253 20.4137L56.38 21.3965V22.6054L54.6356 21.0573V19.9044L56.38 18.481V19.6677Z" fill="#3A3845"/>
<path d="M61.5533 15.1238V16.3665H58.758V23.2829H57.1757V15.1238H61.5533Z" fill="#3A3845"/>
<path d="M65.0306 14.9768C66.6367 14.9768 67.7104 15.689 67.7104 17.7687V20.7296C67.7104 22.8093 66.6367 23.476 65.0306 23.476C63.4483 23.476 62.3163 22.787 62.3163 20.7296V17.7687C62.3163 15.7122 63.4483 14.9768 65.0306 14.9768ZM63.9333 17.5879V20.9219C63.9333 21.7694 64.28 22.2333 65.0306 22.2333C65.7122 22.2333 66.0934 21.781 66.0934 20.9219V17.6102C66.0934 16.7404 65.7122 16.2205 65.0306 16.2205C64.28 16.2205 63.9333 16.7172 63.9333 17.5879Z" fill="#3A3845"/>
<path d="M72.2604 17.7803V17.5996C72.2604 16.5713 71.9947 16.2205 71.325 16.2205C70.6553 16.2205 70.3659 16.5713 70.3659 17.5996V20.8205C70.3659 21.8825 70.6434 22.2333 71.3131 22.2333C71.9482 22.2333 72.2604 21.8719 72.2604 20.8205V20.3798H73.8427V20.7296C73.8427 22.2101 73.3004 23.4761 71.325 23.4761C69.2458 23.4761 68.749 22.1985 68.749 20.7528V17.7803C68.749 15.8697 69.6271 14.9778 71.3487 14.9778C72.9656 14.9778 73.8437 15.8707 73.8437 17.3734V17.7803H72.2604Z" fill="#3A3845"/>
<path d="M76.2359 15.1238L77.518 19.4522L78.8 15.1238H80.5335L78.2696 21.7241C77.8301 23.0123 77.3333 23.4761 76.5599 23.4761C76.1905 23.4761 75.8783 23.4191 75.6008 23.3292V22.1425C75.6936 22.1648 75.8319 22.2334 76.0403 22.2334C76.3524 22.2334 76.5836 22.0411 76.7446 21.5782L74.457 15.1238H76.2359Z" fill="#3A3845"/>
<path d="M86.4466 15.1238V22.0401H86.9543V24.9218H85.4302V23.2829H81.9771V24.9218H80.452V22.0401H80.9489C81.503 20.8418 81.7114 19.916 81.7114 17.6663V15.1238H86.4466ZM83.27 16.3675V18.221C83.27 20.0967 83.0043 21.0235 82.5194 22.0411H84.8642V16.3675H83.27Z" fill="#3A3845"/>
<path d="M89.4711 15.1238H91.5967L93.4447 23.2838H91.735L91.3418 21.1588H89.5511L89.0542 23.2838H87.3563L89.4711 15.1238ZM91.1453 19.9498L90.5102 16.152L89.7476 19.9498H91.1453Z" fill="#3A3845"/>
<path d="M95.6857 23.2838H94.1034V15.1238H97.0952C98.4465 15.1238 99.29 16.1974 99.29 17.5078C99.29 18.853 98.4237 19.9605 97.0725 19.9605H95.6857V23.2838ZM95.6857 18.7515H96.4828C97.2799 18.7515 97.6721 18.3109 97.6721 17.531C97.6721 16.7627 97.2799 16.3327 96.4828 16.3327H95.6857V18.7515Z" fill="#3A3845"/>
<path d="M103.843 17.7803V17.5996C103.843 16.5713 103.578 16.2205 102.907 16.2205C102.237 16.2205 101.949 16.5713 101.949 17.5996V20.8205C101.949 21.8825 102.226 22.2333 102.896 22.2333C103.531 22.2333 103.843 21.8719 103.843 20.8205V20.3798H105.426V20.7296C105.426 22.2101 104.883 23.4761 102.907 23.4761C100.828 23.4761 100.331 22.1985 100.331 20.7528V17.7803C100.331 15.8697 101.209 14.9778 102.931 14.9778C104.548 14.9778 105.426 15.8707 105.426 17.3734V17.7803H103.843Z" fill="#3A3845"/>
<path d="M109.701 23.2838H108.119V16.3675H106.155V15.1238H111.666V16.3665H109.702L109.701 23.2838Z" fill="#3A3845"/>
<path d="M112.452 15.1238H115.375C116.842 15.1238 117.43 16.0728 117.43 17.1126C117.43 17.8924 117.004 18.7622 116.31 18.8984C117.13 19.226 117.546 19.802 117.546 20.865C117.546 22.2778 116.922 23.2838 115.639 23.2838H112.451L112.452 15.1238ZM114.034 18.4355H114.866C115.559 18.4355 115.848 18.0287 115.848 17.3281C115.848 16.6391 115.605 16.2883 114.89 16.2883H114.034V18.4355ZM114.034 22.1193H115.051C115.639 22.1193 115.929 21.7686 115.929 20.8534C115.929 20.0513 115.639 19.599 115.051 19.599H114.034V22.1193Z" fill="#3A3845"/>
<path d="M122.994 15.1238V16.3665H120.117V18.2655H122.74V19.5082H120.117V22.0401H122.994V23.2829H118.535V15.1238H122.994Z" fill="#3A3845"/>
<path d="M125.571 18.2655H127.661V15.1238H129.244V23.2838H127.661V19.5092H125.571V23.2838H123.988V15.1238H125.571V18.2655Z" fill="#3A3845"/>
<path d="M131.983 18.2655H134.074V15.1238H135.656V23.2838H134.074V19.5092H131.983V23.2838H130.4V15.1238H131.983V18.2655Z" fill="#3A3845"/>
<path d="M138.394 18.2655H139.722C141.016 18.2655 141.848 19.5198 141.848 20.6727C141.848 22.243 141.12 23.2829 139.862 23.2829H136.812V15.1238H138.395L138.394 18.2655ZM138.394 22.1193H139.306C139.895 22.1193 140.23 21.7686 140.23 20.8534C140.23 20.0513 139.895 19.5082 139.306 19.5082H138.394V22.1193ZM144.631 23.2838H143.049V15.1238H144.631V23.2838Z" fill="#3A3845"/>
<path d="M147.259 15.1236V18.186C147.259 19.1582 147.213 20.3787 147.062 21.0562H147.074L149.385 15.1227H151.094V23.2827H149.616V20.1874C149.616 18.9447 149.65 18.0962 149.812 17.3617H149.801L147.491 23.2837H145.781V15.1236H147.259ZM147.547 12.9087C147.547 13.5194 147.871 13.8354 148.379 13.8354C148.887 13.8354 149.211 13.5185 149.211 12.9087H150.031C150.031 13.7794 149.696 14.6037 148.355 14.6037C147.061 14.6037 146.727 13.7784 146.727 12.9087H147.547Z" fill="#3A3845"/>
<path d="M156.606 18.2655H158.697V15.1238H160.279V23.2838H158.697V19.5092H156.606V23.2838H155.024V15.1238H156.606V18.2655Z" fill="#3A3845"/>
<path d="M163.031 15.1238H165.156L167.005 23.2838H165.295L164.902 21.1588H163.111L162.614 23.2838H160.916L163.031 15.1238ZM164.706 19.9498L164.071 16.152L163.308 19.9498H164.706Z" fill="#3A3845"/>
<path d="M168.609 15.1238L169.891 19.4522L171.173 15.1238H172.906L170.642 21.7241C170.202 23.0123 169.705 23.4761 168.932 23.4761C168.563 23.4761 168.25 23.4191 167.973 23.3292V22.1425C168.066 22.1648 168.204 22.2334 168.412 22.2334C168.725 22.2334 168.955 22.0411 169.117 21.5782L166.829 15.1247H168.609V15.1238Z" fill="#3A3845"/>
<path d="M175.16 15.1238V17.3503C175.16 18.1302 175.552 18.5708 176.349 18.5708C176.58 18.5708 176.972 18.537 177.146 18.4916V15.1238H178.728V23.2838H177.146V19.7015C176.695 19.7923 176.326 19.8145 175.805 19.8145C174.454 19.8145 173.576 18.8994 173.576 17.5542V15.1238H175.16Z" fill="#3A3845"/>
<path d="M181.557 18.2655H183.647V15.1238H185.229V23.2838H183.647V19.5092H181.557V23.2838H179.975V15.1238H181.557V18.2655Z" fill="#3A3845"/>
<path d="M187.969 18.2655H189.298C190.591 18.2655 191.423 19.5198 191.423 20.6727C191.423 22.243 190.695 23.2829 189.436 23.2829H186.387V15.1238H187.969V18.2655ZM187.969 22.1193H188.882C189.47 22.1193 189.805 21.7686 189.805 20.8534C189.805 20.0513 189.47 19.5082 188.882 19.5082H187.969V22.1193ZM194.207 23.2838H192.624V15.1238H194.207V23.2838Z" fill="#3A3845"/>
<path d="M196.841 15.1236V18.186C196.841 19.1582 196.795 20.3787 196.644 21.0562H196.656L198.967 15.1227H200.676V23.2827H199.198V20.1874C199.198 18.9447 199.232 18.0962 199.394 17.3617H199.382L197.072 23.2837H195.362V15.1236H196.841ZM197.129 12.9087C197.129 13.5194 197.453 13.8354 197.961 13.8354C198.469 13.8354 198.793 13.5185 198.793 12.9087H199.613C199.613 13.7794 199.278 14.6037 197.937 14.6037C196.643 14.6037 196.309 13.7784 196.309 12.9087H197.129Z" fill="#3A3845"/>
<path d="M206.187 22.0401H208.278V15.1238H209.86V22.0401H210.369V24.9334H208.89V23.2838H204.605V15.1238H206.187V22.0401Z" fill="#3A3845"/>
<path d="M215.728 15.1238V16.3665H212.852V18.2655H215.473V19.5082H212.852V22.0401H215.728V23.2829H211.27V15.1238H215.728Z" fill="#3A3845"/>
<path d="M218.3 18.2655H220.39V15.1238H221.973V23.2838H220.39V19.5092H218.3V23.2838H216.718V15.1238H218.3V18.2655Z" fill="#3A3845"/>
<path d="M226.307 23.2838H224.724V16.3675H222.761V15.1238H228.271V16.3665H226.308L226.307 23.2838Z" fill="#3A3845"/>
<path d="M230.639 23.2838H229.057V15.1238H232.048C233.4 15.1238 234.243 16.1974 234.243 17.5078C234.243 18.853 233.377 19.9605 232.026 19.9605H230.64L230.639 23.2838ZM230.639 18.7515H231.436C232.233 18.7515 232.625 18.3109 232.625 17.531C232.625 16.7627 232.232 16.3327 231.436 16.3327H230.639V18.7515Z" fill="#3A3845"/>
<path d="M243.877 15.1238V22.0401H244.385V24.9218H242.861V23.2829H239.407V24.9218H237.882V22.0401H238.379C238.933 20.8418 239.141 19.916 239.141 17.6663V15.1238H243.877ZM240.701 16.3675V18.221C240.701 20.0967 240.435 21.0235 239.95 22.0411H242.295V16.3675H240.701Z" fill="#3A3845"/>
<path d="M249.771 15.1238V16.3665H246.895V18.2655H249.516V19.5082H246.895V22.0401H249.771V23.2829H245.312V15.1238H249.771Z" fill="#3A3845"/>
<path d="M252.343 23.2838H250.761V15.1238H253.753C255.104 15.1238 255.947 16.1974 255.947 17.5078C255.947 18.853 255.081 19.9605 253.73 19.9605H252.344L252.343 23.2838ZM252.343 18.7515H253.14C253.937 18.7515 254.329 18.3109 254.329 17.531C254.329 16.7627 253.936 16.3327 253.14 16.3327H252.343V18.7515Z" fill="#3A3845"/>
<path d="M259.573 15.1238L260.681 20.4243L261.79 15.1238H264.32V23.2838H262.841V15.893H262.829L261.247 23.2838H260.115L258.532 15.9036H258.522V23.2838H257.043V15.1238H259.573Z" fill="#3A3845"/>
<path d="M267.074 15.1238H269.199L271.047 23.2838H269.338L268.944 21.1588H267.154L266.657 23.2838H264.959L267.074 15.1238ZM268.749 19.9498L268.114 16.152L267.351 19.9498H268.749Z" fill="#3A3845"/>
<path d="M274.452 23.2838H272.87V16.3675H270.906V15.1238H276.417V16.3665H274.453V23.2838H274.452Z" fill="#3A3845"/>
<path d="M279.862 14.9768C281.468 14.9768 282.541 15.689 282.541 17.7687V20.7296C282.541 22.8093 281.468 23.476 279.862 23.476C278.279 23.476 277.147 22.787 277.147 20.7296V17.7687C277.146 15.7122 278.278 14.9768 279.862 14.9768ZM278.763 17.5879V20.9219C278.763 21.7694 279.11 22.2333 279.861 22.2333C280.542 22.2333 280.924 21.781 280.924 20.9219V17.6102C280.924 16.7404 280.542 16.2205 279.861 16.2205C279.11 16.2205 278.763 16.7172 278.763 17.5879Z" fill="#3A3845"/>
<path d="M283.636 15.1238H286.558C288.025 15.1238 288.614 16.0728 288.614 17.1126C288.614 17.8924 288.186 18.7622 287.494 18.8984C288.314 19.226 288.729 19.802 288.729 20.865C288.729 22.2778 288.106 23.2838 286.823 23.2838H283.635V15.1238H283.636ZM285.218 18.4355H286.05C286.743 18.4355 287.032 18.0287 287.032 17.3281C287.032 16.6391 286.789 16.2883 286.072 16.2883H285.218V18.4355ZM285.218 22.1193H286.234C286.823 22.1193 287.113 21.7686 287.113 20.8534C287.113 20.0513 286.824 19.599 286.234 19.599H285.218V22.1193Z" fill="#3A3845"/>
<path d="M294.184 15.1238V16.3665H291.308V18.2655H293.929V19.5082H291.308V22.0401H294.184V23.2829H289.725V15.1238H294.184Z" fill="#3A3845"/>
<path d="M296.756 18.2655H298.846V15.1238H300.428V23.2838H298.846V19.5092H296.756V23.2838H295.174V15.1238H296.756V18.2655Z" fill="#3A3845"/>
<path d="M306.044 15.1238V16.3665H303.168V18.2655H305.79V19.5082H303.168V22.0401H306.044V23.2829H301.586V15.1238H306.044Z" fill="#3A3845"/>
<path d="M308.623 23.2838H307.041V15.1238H310.033C311.384 15.1238 312.227 16.1974 312.227 17.5078C312.227 18.853 311.361 19.9605 310.01 19.9605H308.624V23.2838H308.623ZM308.623 18.7515H309.42C310.217 18.7515 310.61 18.3109 310.61 17.531C310.61 16.7627 310.216 16.3327 309.42 16.3327H308.623V18.7515Z" fill="#3A3845"/>
<path d="M315.976 14.9768C317.582 14.9768 318.656 15.689 318.656 17.7687V20.7296C318.656 22.8093 317.582 23.476 315.976 23.476C314.394 23.476 313.262 22.787 313.262 20.7296V17.7687C313.262 15.7122 314.394 14.9768 315.976 14.9768ZM314.879 17.5879V20.9219C314.879 21.7694 315.225 22.2333 315.976 22.2333C316.657 22.2333 317.039 21.781 317.039 20.9219V17.6102C317.039 16.7404 316.657 16.2205 315.976 16.2205C315.225 16.2205 314.879 16.7172 314.879 17.5879Z" fill="#3A3845"/>
<path d="M325.357 15.1238V23.2838H323.775V16.3675H322.089V19.4976C322.089 22.2208 321.626 23.4307 320.298 23.4307C319.928 23.4307 319.64 23.4085 319.339 23.3292V22.188C319.442 22.2218 319.663 22.244 319.847 22.244C320.332 22.244 320.529 21.9957 320.529 19.0347V15.1238H325.357Z" fill="#3A3845"/>
<path d="M329.238 14.9768C330.844 14.9768 331.917 15.689 331.917 17.7687V20.7296C331.917 22.8093 330.844 23.476 329.238 23.476C327.655 23.476 326.523 22.787 326.523 20.7296V17.7687C326.523 15.7122 327.655 14.9768 329.238 14.9768ZM328.14 17.5879V20.9219C328.14 21.7694 328.487 22.2333 329.238 22.2333C329.919 22.2333 330.3 21.781 330.3 20.9219V17.6102C330.3 16.7404 329.919 16.2205 329.238 16.2205C328.487 16.2205 328.14 16.7172 328.14 17.5879Z" fill="#3A3845"/>
<path d="M337.395 15.1238V16.3665H334.6V23.2829H333.017V15.1238H337.395Z" fill="#3A3845"/>
<path d="M339.691 15.1238V18.1756C339.691 19.1478 339.645 20.3789 339.495 21.0573H339.507L341.817 15.1238H343.527V23.2838H342.048V20.1982C342.048 18.9554 342.083 18.0963 342.245 17.3619H342.233L339.923 23.2838H338.213V15.1238H339.691Z" fill="#3A3845"/>
<path d="M346.165 15.1238V18.1756C346.165 19.1478 346.119 20.3789 345.968 21.0573H345.98L348.291 15.1238H350V23.2838H348.522V20.1982C348.522 18.9554 348.556 18.0963 348.718 17.3619H348.706L346.396 23.2838H344.686V15.1238H346.165Z" fill="#3A3845"/>
<path d="M54.3555 29.2511V32.3029C54.3555 33.2751 54.3091 34.5062 54.159 35.1846H54.1698L56.4802 29.2511H58.1899V37.4111H56.7113V34.3255C56.7113 33.0828 56.7459 32.2237 56.9079 31.4892H56.896L54.5857 37.4111H52.8759V29.2511H54.3555Z" fill="#3A3845"/>
<path d="M63.7004 32.7881L65.6186 29.2512H67.4093L65.2956 32.7881L67.4785 37.4103H65.7114L64.3246 34.1556L63.7004 34.9576V37.4103H62.118V29.2502H63.7004V32.7881Z" fill="#3A3845"/>
<path d="M70.7933 29.1042C72.3983 29.1042 73.473 29.8165 73.473 31.8961V34.8571C73.473 36.9367 72.3983 37.6035 70.7933 37.6035C69.2109 37.6035 68.079 36.9145 68.079 34.8571V31.8961C68.078 29.8387 69.2109 29.1042 70.7933 29.1042ZM69.6959 31.7144V35.0484C69.6959 35.8959 70.0426 36.3598 70.7933 36.3598C71.4748 36.3598 71.8561 35.9075 71.8561 35.0484V31.7366C71.8561 30.8669 71.4748 30.347 70.7933 30.347C70.0426 30.347 69.6959 30.8447 69.6959 31.7144Z" fill="#3A3845"/>
<path d="M78.024 31.9067V31.726C78.024 30.6978 77.7583 30.347 77.0876 30.347C76.4169 30.347 76.1295 30.6978 76.1295 31.726V34.9469C76.1295 36.009 76.4071 36.3598 77.0767 36.3598C77.7128 36.3598 78.024 35.9983 78.024 34.9469V34.5063H79.6063V34.8561C79.6063 36.3366 79.0631 37.6025 77.0876 37.6025C75.0084 37.6025 74.5116 36.325 74.5116 34.8793V31.9067C74.5116 29.9962 75.3897 29.1042 77.1103 29.1042C78.7272 29.1042 79.6053 29.9972 79.6053 31.4999V31.9067H78.024Z" fill="#3A3845"/>
<path d="M83.2345 29.2511L84.3428 34.5517L85.452 29.2511H87.9816V37.4111H86.503V30.0203H86.4921L84.9097 37.4111H83.7778L82.1955 30.031H82.1836V37.4111H80.705V29.2511H83.2345Z" fill="#3A3845"/>
<path d="M93.5991 29.2512V30.494H90.7228V32.3929H93.3442V33.6356H90.7228V36.1675H93.5991V37.4103H89.1404V29.2502L93.5991 29.2512Z" fill="#3A3845"/>
<path d="M97.7656 37.4102H96.1832V30.4939H94.2196V29.2511H99.7302V30.4939H97.7656V37.4102Z" fill="#3A3845"/>
<path d="M103.175 29.1042C104.78 29.1042 105.855 29.8165 105.855 31.8961V34.8571C105.855 36.9367 104.78 37.6035 103.175 37.6035C101.593 37.6035 100.461 36.9145 100.461 34.8571V31.8961C100.461 29.8387 101.593 29.1042 103.175 29.1042ZM102.078 31.7144V35.0484C102.078 35.8959 102.424 36.3598 103.175 36.3598C103.857 36.3598 104.238 35.9075 104.238 35.0484V31.7366C104.238 30.8669 103.857 30.347 103.175 30.347C102.424 30.347 102.078 30.8447 102.078 31.7144Z" fill="#3A3845"/>
<path d="M112.555 29.2511V37.4111H110.973V30.4948H109.287V33.6249C109.287 36.3481 108.825 37.558 107.496 37.558C107.127 37.558 106.838 37.5358 106.538 37.4566V36.3153C106.642 36.3491 106.862 36.3713 107.046 36.3713C107.531 36.3713 107.727 36.123 107.727 33.162V29.2521H112.555V29.2511Z" fill="#3A3845"/>
<path d="M116.437 29.1042C118.043 29.1042 119.117 29.8165 119.117 31.8961V34.8571C119.117 36.9367 118.043 37.6035 116.437 37.6035C114.854 37.6035 113.722 36.9145 113.722 34.8571V31.8961C113.722 29.8387 114.854 29.1042 116.437 29.1042ZM115.339 31.7144V35.0484C115.339 35.8959 115.686 36.3598 116.437 36.3598C117.118 36.3598 117.5 35.9075 117.5 35.0484V31.7366C117.5 30.8669 117.118 30.347 116.437 30.347C115.686 30.347 115.339 30.8447 115.339 31.7144Z" fill="#3A3845"/>
<path d="M124.586 29.2512V30.494H121.79V37.4103H120.208V29.2502L124.586 29.2512Z" fill="#3A3845"/>
<path d="M126.889 29.2511V32.3029C126.889 33.2751 126.843 34.5062 126.692 35.1846H126.704L129.014 29.2511H130.724V37.4111H129.246V34.3255C129.246 33.0828 129.28 32.2237 129.442 31.4892H129.43L127.12 37.4111H125.41V29.2511H126.889Z" fill="#3A3845"/>
<path d="M133.356 29.2511V32.3029C133.356 33.2751 133.309 34.5062 133.159 35.1846H133.171L135.481 29.2511H137.191V37.4111H135.712V34.3255C135.712 33.0828 135.747 32.2237 135.909 31.4892H135.897L133.587 37.4111H131.877V29.2511H133.356Z" fill="#3A3845"/>
<path d="M138.091 32.4943L139.835 33.9747V35.0822L138.091 36.5511V35.3644L139.142 34.4715L138.091 33.7032V32.4943ZM141.948 33.9747V35.0822L140.204 36.5511V35.3644L141.255 34.4715L140.204 33.7032V32.4943L141.948 33.9747Z" fill="#3A3845"/>
<path d="M148.003 29.2511L149.112 34.5517L150.221 29.2511H152.75V37.4111H151.272V30.0203H151.261L149.678 37.4111H148.547L146.964 30.031H146.952V37.4111H145.474V29.2511H148.003Z" fill="#3A3845"/>
<path d="M155.38 29.2511V32.3029C155.38 33.2751 155.334 34.5062 155.183 35.1846H155.195L157.506 29.2511H159.215V37.4111H157.737V34.3255C157.737 33.0828 157.771 32.2237 157.933 31.4892H157.922L155.612 37.4111H153.902V29.2511H155.38Z" fill="#3A3845"/>
<path d="M161.958 32.3928H164.049V29.2511H165.633V37.4111H164.049V33.6365H161.958V37.4111H160.376V29.2511H161.958V32.3928Z" fill="#3A3845"/>
<path d="M166.669 31.6013C166.669 30.1779 167.582 29.1033 169.153 29.1033C170.274 29.1033 171.648 29.6232 171.648 31.2728C171.648 32.1203 171.128 32.8547 170.366 33.047C171.197 33.2509 171.763 33.9177 171.763 35.1489C171.763 36.7879 170.851 37.6015 169.199 37.6015C167.836 37.6015 166.542 36.9908 166.542 35.2397H168.079C168.079 35.8051 168.31 36.3588 169.107 36.3588C169.87 36.3588 170.146 35.8505 170.146 35.003C170.146 34.0424 169.649 33.6916 168.992 33.6916H168.657V32.5281H168.992C169.58 32.5281 170.031 32.2111 170.031 31.4883C170.031 30.9461 169.823 30.347 169.153 30.347C168.529 30.347 168.205 30.8669 168.205 31.6013H166.669Z" fill="#3A3845"/>
<path d="M178.622 29.2511V36.1674H179.129V39.0491H177.605V37.4102H174.151V39.0491H172.626V36.1674H173.123C173.677 34.9691 173.885 34.0433 173.885 31.7936V29.2511H178.622ZM175.445 30.4939V32.3474C175.445 34.2231 175.179 35.1498 174.694 36.1674H177.039V30.4939H175.445Z" fill="#3A3845"/>
<path d="M181.639 37.4103H180.057V29.2502H183.049C184.4 29.2502 185.243 30.3239 185.243 31.6343C185.243 32.9795 184.377 34.0869 183.026 34.0869H181.64V37.4103H181.639ZM181.639 32.879H182.436C183.233 32.879 183.625 32.4383 183.625 31.6584C183.625 30.8902 183.232 30.4601 182.436 30.4601H181.639V32.879Z" fill="#3A3845"/>
<path d="M187.415 29.2511H189.54L191.388 37.4111H189.678L189.285 35.2861H187.495L186.998 37.4111H185.3L187.415 29.2511ZM189.09 34.0772L188.455 30.2793L187.692 34.0772H189.09Z" fill="#3A3845"/>
<path d="M192.048 29.2511H194.971C196.437 29.2511 197.026 30.2001 197.026 31.2399C197.026 32.0198 196.598 32.8895 195.906 33.0257C196.726 33.3533 197.142 33.9293 197.142 34.9923C197.142 36.4051 196.518 37.4111 195.235 37.4111H192.047V29.2511H192.048ZM193.63 32.5619H194.462C195.155 32.5619 195.444 32.155 195.444 31.4544C195.444 30.7654 195.201 30.4146 194.485 30.4146H193.63V32.5619ZM193.63 36.2467H194.647C195.235 36.2467 195.525 35.8959 195.525 34.9807C195.525 34.1786 195.236 33.7264 194.647 33.7264H193.63V36.2467Z" fill="#3A3845"/>
<path d="M199.726 29.2511H201.852L203.7 37.4111H201.99L201.597 35.2861H199.806L199.309 37.4111H197.611L199.726 29.2511ZM201.401 34.0772L200.766 30.2793L200.004 34.0772H201.401Z" fill="#3A3845"/>
<path d="M208.716 37.4103H207.134V29.2502H210.126C211.477 29.2502 212.32 30.3239 212.32 31.6343C212.32 32.9795 211.454 34.0869 210.103 34.0869H208.717V37.4103H208.716ZM208.716 32.879H209.513C210.31 32.879 210.702 32.4383 210.702 31.6584C210.702 30.8902 210.309 30.4601 209.513 30.4601H208.716V32.879Z" fill="#3A3845"/>
<path d="M216.069 29.1042C217.675 29.1042 218.749 29.8165 218.749 31.8961V34.8571C218.749 36.9367 217.675 37.6035 216.069 37.6035C214.486 37.6035 213.354 36.9145 213.354 34.8571V31.8961C213.354 29.8387 214.486 29.1042 216.069 29.1042ZM214.971 31.7144V35.0484C214.971 35.8959 215.318 36.3598 216.069 36.3598C216.75 36.3598 217.132 35.9075 217.132 35.0484V31.7366C217.132 30.8669 216.75 30.347 216.069 30.347C215.318 30.347 214.971 30.8447 214.971 31.7144Z" fill="#3A3845"/>
<path d="M223.305 31.9067V31.726C223.305 30.6978 223.04 30.347 222.37 30.347C221.7 30.347 221.411 30.6978 221.411 31.726V34.9469C221.411 36.009 221.688 36.3598 222.358 36.3598C222.993 36.3598 223.305 35.9983 223.305 34.9469V34.5063H224.889V34.8561C224.889 36.3366 224.345 37.6025 222.37 37.6025C220.291 37.6025 219.794 36.325 219.794 34.8793V31.9067C219.794 29.9962 220.672 29.1042 222.393 29.1042C224.01 29.1042 224.888 29.9972 224.888 31.4999V31.9067H223.305Z" fill="#3A3845"/>
<path d="M229.437 31.9067V31.726C229.437 30.6978 229.171 30.347 228.502 30.347C227.832 30.347 227.543 30.6978 227.543 31.726V34.9469C227.543 36.009 227.82 36.3598 228.49 36.3598C229.125 36.3598 229.437 35.9983 229.437 34.9469V34.5063H231.021V34.8561C231.021 36.3366 230.477 37.6025 228.502 37.6025C226.423 37.6025 225.926 36.325 225.926 34.8793V31.9067C225.926 29.9962 226.804 29.1042 228.525 29.1042C230.141 29.1042 231.02 29.9972 231.02 31.4999V31.9067H229.437Z" fill="#3A3845"/>
<path d="M233.598 29.2511V32.3029C233.598 33.2751 233.551 34.5062 233.401 35.1846H233.413L235.723 29.2511H237.433V37.4111H235.955V34.3255C235.955 33.0828 235.989 32.2237 236.151 31.4892H236.139L233.829 37.4111H232.119V29.2511H233.598Z" fill="#3A3845"/>
<path d="M240.065 29.2511V32.3029C240.065 33.2751 240.018 34.5062 239.868 35.1846H239.88L242.19 29.2511H243.9V37.4111H242.421V34.3255C242.421 33.0828 242.456 32.2237 242.618 31.4892H242.606L240.296 37.4111H238.586V29.2511H240.065Z" fill="#3A3845"/>
<path d="M52.7324 45.9453C52.7324 45.7424 52.7373 45.5558 52.7472 45.3848C52.7571 45.2137 52.7788 45.0282 52.8124 44.8272C52.845 44.6262 52.8894 44.4455 52.9447 44.286C52.999 44.1266 53.0741 43.9691 53.1689 43.8144C53.2638 43.6598 53.3734 43.5303 53.4998 43.4269C53.6263 43.3235 53.7823 43.2404 53.969 43.1776C54.1547 43.1158 54.3611 43.0839 54.5883 43.0839C54.7671 43.0839 54.933 43.1032 55.0861 43.1418C55.2392 43.1805 55.3736 43.2327 55.4901 43.2994C55.6057 43.3651 55.7114 43.4482 55.8062 43.5468C55.9 43.6453 55.981 43.7497 56.0472 43.8589C56.1134 43.9691 56.1707 44.0928 56.2201 44.2309C56.2685 44.3701 56.307 44.5054 56.3366 44.6397C56.3652 44.7731 56.389 44.918 56.4067 45.0736C56.4245 45.2302 56.4374 45.3751 56.4433 45.5114C56.4492 45.6476 56.4522 45.7916 56.4522 45.9443C56.4522 46.184 56.4462 46.3985 56.4344 46.5879C56.4235 46.7773 56.4018 46.9754 56.3692 47.1832C56.3376 47.391 56.2931 47.5727 56.2378 47.7282C56.1815 47.8848 56.1065 48.0346 56.0116 48.1795C55.9168 48.3245 55.8062 48.4434 55.6768 48.5371C55.5474 48.6308 55.3913 48.7052 55.2076 48.7603C55.0239 48.8154 54.8165 48.8425 54.5873 48.8425C54.3582 48.8425 54.1517 48.8154 53.968 48.7603C53.7843 48.7052 53.6282 48.6308 53.5008 48.5371C53.3734 48.4434 53.2628 48.3245 53.168 48.1795C53.0731 48.0346 52.9991 47.8838 52.9437 47.7282C52.8894 47.5727 52.845 47.391 52.8114 47.1832C52.7788 46.9754 52.7571 46.7773 52.7462 46.5879C52.7383 46.3995 52.7324 46.1849 52.7324 45.9453ZM53.3833 45.8438C53.3833 46.1878 53.3922 46.4797 53.4099 46.7184C53.4277 46.9571 53.4613 47.1813 53.5117 47.3919C53.5621 47.6036 53.6302 47.7708 53.7191 47.8935C53.807 48.0172 53.9226 48.1138 54.0668 48.1834C54.211 48.254 54.3848 48.2878 54.5893 48.2878C54.7602 48.2878 54.9093 48.2655 55.0377 48.2211C55.1652 48.1757 55.2738 48.1051 55.3637 48.0075C55.4526 47.9099 55.5267 47.7978 55.5839 47.6703C55.6412 47.5427 55.6857 47.3823 55.7173 47.189C55.7499 46.9957 55.7716 46.7957 55.7845 46.5879C55.7973 46.3802 55.8042 46.1347 55.8042 45.8496C55.8042 45.5877 55.7934 45.351 55.7736 45.1413C55.7529 44.9316 55.7143 44.7306 55.659 44.5363C55.6027 44.343 55.5296 44.1817 55.4388 44.0531C55.3489 43.9246 55.2303 43.8222 55.0851 43.7458C54.9399 43.6695 54.7701 43.6318 54.5755 43.6318C54.3868 43.6318 54.2219 43.6705 54.0816 43.7458C53.9413 43.8222 53.8278 43.9236 53.7389 44.0512C53.651 44.1788 53.5798 44.3392 53.5265 44.5325C53.4722 44.7257 53.4356 44.9267 53.4149 45.1355C53.3932 45.3461 53.3833 45.5819 53.3833 45.8438Z" fill="#3A3845"/>
<path d="M57.3192 45.8815C57.3192 45.6873 57.3251 45.5037 57.336 45.3326C57.3479 45.1616 57.3696 44.9789 57.4032 44.7837C57.4358 44.5895 57.4792 44.4136 57.5336 44.2561C57.5869 44.0986 57.66 43.9449 57.7518 43.7951C57.8437 43.6453 57.9504 43.5197 58.0709 43.4192C58.1924 43.3177 58.3405 43.2366 58.5144 43.1757C58.6892 43.1148 58.8838 43.0839 59.0981 43.0839C59.4419 43.0839 59.7382 43.1631 59.9841 43.3216C60.2311 43.4801 60.4118 43.6898 60.5284 43.9507C60.6439 44.2116 60.7022 44.5102 60.7022 44.8475H60.0789C60.0789 44.0386 59.7402 43.6347 59.0645 43.6347C58.947 43.6347 58.8393 43.654 58.7416 43.6907C58.6428 43.7284 58.5578 43.7748 58.4867 43.8299C58.4146 43.885 58.3514 43.9594 58.2951 44.0522C58.2388 44.1459 58.1934 44.2358 58.1578 44.3218C58.1222 44.4078 58.0926 44.5131 58.0679 44.6388C58.0432 44.7634 58.0245 44.8707 58.0126 44.9606C57.9998 45.0504 57.9899 45.1616 57.984 45.294C57.977 45.4263 57.9741 45.5268 57.9731 45.5955C57.9711 45.6641 57.9711 45.7549 57.9711 45.867C57.9711 46.0564 57.9731 46.2197 57.977 46.357C57.98 46.4942 57.9909 46.6527 58.0077 46.8324C58.0235 47.0122 58.0472 47.1658 58.0758 47.2934C58.1055 47.42 58.1479 47.5514 58.2023 47.6848C58.2566 47.8181 58.3228 47.9264 58.3968 48.0085C58.4719 48.0906 58.5667 48.1583 58.6803 48.2105C58.7939 48.2626 58.9213 48.2887 59.0645 48.2887C59.2226 48.2887 59.3599 48.2626 59.4764 48.2105C59.592 48.1583 59.6848 48.0897 59.755 48.0046C59.8251 47.9196 59.8834 47.8065 59.9298 47.6645C59.9762 47.5224 60.0088 47.3804 60.0296 47.2393C60.0493 47.0982 60.0671 46.9252 60.0799 46.7203H60.7032C60.6854 47.0595 60.6489 47.3514 60.5916 47.5949C60.5353 47.8384 60.4493 48.0578 60.3338 48.254C60.2172 48.4501 60.0582 48.597 59.8547 48.6956C59.6513 48.7942 59.4053 48.8434 59.1139 48.8434C58.8848 48.8434 58.6764 48.8106 58.4917 48.7449C58.306 48.6782 58.1529 48.5931 58.0304 48.4878C57.9079 48.3825 57.8012 48.2491 57.7113 48.0858C57.6205 47.9225 57.5503 47.7601 57.501 47.5988C57.4506 47.4374 57.4121 47.2499 57.3844 47.0354C57.3558 46.8208 57.338 46.6285 57.3301 46.4584C57.3232 46.2884 57.3192 46.096 57.3192 45.8815Z" fill="#3A3845"/>
<path d="M61.6942 48.7118V43.189H62.3185V45.5372H64.4767V43.189H65.0999V48.7118H64.4767V46.091H62.3185V48.7118H61.6942Z" fill="#3A3845"/>
<path d="M66.1171 45.9453C66.1171 45.7424 66.1221 45.5558 66.1319 45.3848C66.1428 45.2137 66.1645 45.0282 66.1971 44.8272C66.2297 44.6262 66.2742 44.4455 66.3295 44.286C66.3838 44.1266 66.4589 43.9691 66.5537 43.8144C66.6475 43.6598 66.7582 43.5303 66.8846 43.4269C67.011 43.3235 67.1671 43.2404 67.3538 43.1776C67.5395 43.1158 67.7469 43.0839 67.9741 43.0839C68.1528 43.0839 68.3188 43.1032 68.4719 43.1418C68.625 43.1805 68.7593 43.2327 68.8759 43.2994C68.9924 43.3651 69.0971 43.4482 69.1919 43.5468C69.2858 43.6453 69.3668 43.7497 69.4329 43.8589C69.4991 43.9691 69.5564 44.0928 69.6048 44.2309C69.6532 44.3701 69.6927 44.5054 69.7214 44.6397C69.751 44.7731 69.7737 44.918 69.7915 45.0736C69.8093 45.2302 69.8221 45.3751 69.828 45.5114C69.834 45.6476 69.8369 45.7916 69.8369 45.9443C69.8369 46.184 69.831 46.3985 69.8201 46.5879C69.8083 46.7773 69.7875 46.9754 69.755 47.1832C69.7233 47.391 69.6789 47.5727 69.6226 47.7282C69.5663 47.8848 69.4912 48.0346 69.3974 48.1795C69.3036 48.3245 69.191 48.4434 69.0625 48.5371C68.9332 48.6308 68.7771 48.7052 68.5934 48.7603C68.4097 48.8154 68.2032 48.8425 67.9731 48.8425C67.7429 48.8425 67.5365 48.8154 67.3528 48.7603C67.1691 48.7052 67.013 48.6308 66.8856 48.5371C66.7582 48.4434 66.6475 48.3245 66.5527 48.1795C66.4579 48.0346 66.3838 47.8838 66.3285 47.7282C66.2742 47.5727 66.2297 47.391 66.1961 47.1832C66.1626 46.9754 66.1418 46.7773 66.131 46.5879C66.1221 46.3995 66.1171 46.1849 66.1171 45.9453ZM66.768 45.8438C66.768 46.1878 66.7769 46.4797 66.7947 46.7184C66.8125 46.9571 66.8461 47.1813 66.8964 47.3919C66.9458 47.6036 67.015 47.7708 67.1029 47.8935C67.1908 48.0172 67.3073 48.1138 67.4506 48.1834C67.5948 48.254 67.7686 48.2878 67.9731 48.2878C68.144 48.2878 68.2931 48.2655 68.4215 48.2211C68.5489 48.1757 68.6576 48.1051 68.7465 48.0075C68.8354 47.9099 68.9094 47.7978 68.9667 47.6703C69.024 47.5427 69.0685 47.3823 69.1011 47.189C69.1327 46.9957 69.1554 46.7957 69.1682 46.5879C69.1811 46.3802 69.188 46.1347 69.188 45.8496C69.188 45.5877 69.1771 45.351 69.1574 45.1413C69.1366 44.9316 69.0981 44.7306 69.0418 44.5363C68.9855 44.343 68.9124 44.1817 68.8215 44.0531C68.7317 43.9246 68.6131 43.8222 68.4679 43.7458C68.3217 43.6695 68.1528 43.6318 67.9583 43.6318C67.7696 43.6318 67.6047 43.6705 67.4644 43.7458C67.3241 43.8222 67.2105 43.9236 67.1217 44.0512C67.0337 44.1788 66.9626 44.3392 66.9093 44.5325C66.8559 44.7257 66.8184 44.9267 66.7987 45.1355C66.7779 45.3461 66.768 45.5819 66.768 45.8438Z" fill="#3A3845"/>
<path d="M70.8612 48.7118V43.189H72.3428C72.8554 43.189 73.2417 43.3117 73.5024 43.5581C73.7622 43.8045 73.8926 44.1418 73.8926 44.5709C73.8926 44.8801 73.8215 45.142 73.6782 45.3556C73.535 45.5691 73.3325 45.7093 73.0698 45.7769V45.7914C73.3454 45.8262 73.5775 45.9654 73.7671 46.2089C73.9558 46.4524 74.0496 46.7597 74.0496 47.1318C74.0496 47.643 73.9094 48.0344 73.6288 48.3059C73.3473 48.5775 72.9443 48.7127 72.4199 48.7127L70.8612 48.7118ZM71.4855 45.5363H72.2618C72.5907 45.5363 72.8367 45.4667 72.9987 45.3266C73.1607 45.1865 73.2417 44.9468 73.2417 44.6076C73.2417 44.3032 73.1636 44.0829 73.0076 43.9466C72.8525 43.8103 72.6253 43.7427 72.327 43.7427H71.4855V45.5363ZM71.4855 48.1619H72.4189C72.7557 48.1619 73.0026 48.0788 73.1607 47.9126C73.3187 47.7464 73.3987 47.4835 73.3987 47.124C73.3987 46.435 73.054 46.091 72.3645 46.091H71.4845L71.4855 48.1619Z" fill="#3A3845"/>
<path d="M74.5663 48.7118L76.1734 43.189H77.0041L78.5854 48.7118H77.897L77.4486 47.124H75.6687L75.2558 48.7118H74.5663ZM75.8178 46.5742H77.3103L76.5794 43.6345H76.5645L75.8178 46.5742Z" fill="#3A3845"/>
<path d="M79.2899 48.7118V43.189H79.9132V45.5372H82.0714V43.189H82.6946V48.7118H82.0714V46.091H79.9132V48.7118H79.2899Z" fill="#3A3845"/>
<path d="M85.7567 48.7118V43.189H87.2383C87.751 43.189 88.1372 43.3117 88.3979 43.5581C88.6577 43.8045 88.7881 44.1418 88.7881 44.5709C88.7881 44.8801 88.717 45.142 88.5737 45.3556C88.4305 45.5691 88.228 45.7093 87.9653 45.7769V45.7914C88.2409 45.8262 88.473 45.9654 88.6626 46.2089C88.8513 46.4524 88.9451 46.7597 88.9451 47.1318C88.9451 47.643 88.8049 48.0344 88.5243 48.3059C88.2428 48.5775 87.8399 48.7127 87.3154 48.7127L85.7567 48.7118ZM86.381 45.5363H87.1573C87.4862 45.5363 87.7322 45.4667 87.8942 45.3266C88.0562 45.1865 88.1372 44.9468 88.1372 44.6076C88.1372 44.3032 88.0591 44.0829 87.9031 43.9466C87.748 43.8103 87.5208 43.7427 87.2225 43.7427H86.381V45.5363ZM86.381 48.1619H87.3144C87.6512 48.1619 87.8981 48.0788 88.0562 47.9126C88.2142 47.7464 88.2942 47.4835 88.2942 47.124C88.2942 46.435 87.9495 46.091 87.26 46.091H86.38V48.1619H86.381Z" fill="#3A3845"/>
<path d="M91.7723 44.6868V44.1959C91.9916 44.1959 92.1724 44.1833 92.3136 44.1582C92.4558 44.1331 92.5862 44.0857 92.7057 44.0142C92.8253 43.9437 92.9181 43.8403 92.9833 43.705C93.0485 43.5707 93.092 43.3977 93.1157 43.188H93.6016V48.7108H92.9784V44.6859L91.7723 44.6868Z" fill="#3A3845"/>
<path d="M95.3065 45.1246C95.3065 44.5429 95.4478 44.0751 95.7293 43.7205C96.0108 43.3668 96.3683 43.189 96.8029 43.189C97.0143 43.189 97.204 43.218 97.3729 43.275C97.5418 43.333 97.683 43.4064 97.7956 43.4953C97.9092 43.5852 98.006 43.7011 98.087 43.8422C98.168 43.9833 98.2312 44.1225 98.2766 44.2597C98.3221 44.3969 98.3576 44.5593 98.3833 44.7468C98.409 44.9333 98.4248 45.0995 98.4317 45.2444C98.4386 45.3894 98.4416 45.5556 98.4416 45.7421C98.4416 45.9663 98.4396 46.1461 98.4376 46.2814C98.4357 46.4157 98.4228 46.6051 98.4001 46.8486C98.3784 47.0921 98.3478 47.2912 98.3092 47.4458C98.2707 47.6005 98.2105 47.7754 98.1295 47.9677C98.0485 48.1609 97.9507 48.3136 97.8361 48.4248C97.7215 48.5359 97.5753 48.6306 97.3966 48.7089C97.2178 48.7881 97.0143 48.8268 96.7881 48.8268C96.3782 48.8268 96.0542 48.7069 95.8172 48.4673C95.5791 48.2276 95.4606 47.9068 95.4606 47.5048H96.0839C96.0839 47.7589 96.1431 47.9512 96.2636 48.0798C96.3841 48.2083 96.5738 48.2721 96.8345 48.2721C96.9313 48.2721 97.0212 48.2547 97.1042 48.218C97.1872 48.1812 97.2593 48.1262 97.3205 48.0488C97.3818 47.9725 97.4361 47.8942 97.4835 47.8131C97.5309 47.7319 97.5714 47.6294 97.606 47.5038C97.6405 47.3792 97.6692 47.2671 97.6909 47.1685C97.7126 47.0699 97.7324 46.9481 97.7502 46.8032C97.768 46.6582 97.7818 46.5432 97.7897 46.4572C97.7986 46.3712 97.8085 46.2601 97.8193 46.1258H97.8025C97.6978 46.3529 97.5516 46.5239 97.365 46.637C97.1783 46.75 96.9788 46.8071 96.7664 46.8071C96.5214 46.8071 96.3041 46.7616 96.1145 46.6698C95.9239 46.579 95.7717 46.4543 95.6572 46.2978C95.5426 46.1403 95.4557 45.9624 95.3974 45.7643C95.3352 45.5682 95.3065 45.3546 95.3065 45.1246ZM95.9565 45.0086C95.9565 45.1362 95.9634 45.2541 95.9772 45.3623C95.992 45.4715 96.0177 45.5827 96.0562 45.6957C96.0937 45.8088 96.1451 45.9054 96.2093 45.9856C96.2725 46.0659 96.3575 46.1316 96.4641 46.1828C96.5698 46.234 96.6933 46.2601 96.8336 46.2601C97.0015 46.2601 97.1477 46.2272 97.2721 46.1625C97.3956 46.0977 97.4914 46.0088 97.5586 45.8967C97.6267 45.7846 97.6751 45.6629 97.7057 45.5315C97.7363 45.4 97.7521 45.2589 97.7521 45.1062C97.7521 44.942 97.7383 44.7854 97.7117 44.6395C97.685 44.4936 97.6395 44.3486 97.5744 44.2075C97.5092 44.0645 97.4134 43.9524 97.2859 43.8683C97.1585 43.7852 97.0054 43.7427 96.8266 43.7427C96.6587 43.7427 96.5145 43.7804 96.396 43.8567C96.2775 43.9331 96.1876 44.0365 96.1263 44.1679C96.0651 44.2984 96.0216 44.4336 95.9969 44.5699C95.9693 44.7071 95.9565 44.854 95.9565 45.0086Z" fill="#3A3845"/>
<path d="M99.08 48.7118C99.08 48.4499 99.0958 48.2305 99.1284 48.0527C99.16 47.8749 99.2272 47.6903 99.3299 47.4961C99.4316 47.3028 99.5739 47.1115 99.7566 46.923C99.9384 46.7346 100.184 46.5152 100.492 46.2659C100.77 46.0417 100.992 45.8049 101.16 45.5566C101.328 45.3082 101.412 45.028 101.412 44.7158C101.412 44.4085 101.349 44.1698 101.221 43.9988C101.094 43.8277 100.879 43.7427 100.576 43.7427C100.434 43.7427 100.312 43.7659 100.208 43.8113C100.105 43.8577 100.024 43.9176 99.965 43.991C99.9058 44.0645 99.8603 44.1621 99.8277 44.2829C99.7951 44.4046 99.7734 44.5235 99.7635 44.6404C99.7527 44.7574 99.7477 44.8994 99.7477 45.0666H99.1235V44.8163C99.1235 44.5844 99.1541 44.3708 99.2153 44.1766C99.2766 43.9823 99.3665 43.8103 99.485 43.6615C99.6035 43.5137 99.7586 43.3967 99.9512 43.3136C100.143 43.2295 100.361 43.188 100.606 43.188C101.077 43.188 101.439 43.3271 101.688 43.6055C101.938 43.8838 102.062 44.2587 102.062 44.7313C102.062 44.9304 102.038 45.1159 101.989 45.2869C101.94 45.458 101.865 45.6174 101.764 45.7643C101.662 45.9112 101.557 46.0417 101.451 46.1557C101.344 46.2697 101.209 46.3973 101.046 46.5394C100.826 46.7317 100.667 46.8728 100.567 46.9626C100.466 47.0525 100.357 47.1549 100.241 47.269C100.124 47.384 100.045 47.4671 100.007 47.5183C99.967 47.5695 99.9245 47.6352 99.8781 47.7154C99.8317 47.7956 99.8021 47.8652 99.7882 47.9251C99.7744 47.9851 99.7606 48.0633 99.7487 48.1609H102.116V48.7108H99.08V48.7118Z" fill="#3A3845"/>
<path d="M103.058 44.6868V44.1959C103.278 44.1959 103.459 44.1833 103.6 44.1582C103.742 44.1331 103.872 44.0857 103.992 44.0142C104.112 43.9437 104.204 43.8403 104.269 43.705C104.334 43.5707 104.378 43.3977 104.401 43.188H104.887V48.7108H104.263V44.6859L103.058 44.6868Z" fill="#3A3845"/>
<path d="M108.739 48.7118V43.189H111.387V43.7437H109.362V48.7127L108.739 48.7118Z" fill="#3A3845"/>
<path d="M111.931 45.9453C111.931 45.7424 111.936 45.5558 111.947 45.3848C111.957 45.2137 111.979 45.0282 112.012 44.8272C112.045 44.6262 112.089 44.4455 112.145 44.286C112.199 44.1266 112.274 43.9691 112.368 43.8144C112.462 43.6598 112.573 43.5303 112.699 43.4269C112.825 43.3235 112.981 43.2404 113.168 43.1776C113.354 43.1158 113.561 43.0839 113.788 43.0839C113.966 43.0839 114.132 43.1032 114.285 43.1418C114.438 43.1805 114.573 43.2327 114.689 43.2994C114.806 43.3651 114.91 43.4482 115.005 43.5468C115.1 43.6453 115.18 43.7497 115.246 43.8589C115.312 43.9691 115.37 44.0928 115.418 44.2309C115.467 44.3701 115.506 44.5054 115.535 44.6397C115.564 44.7731 115.588 44.918 115.606 45.0736C115.624 45.2302 115.635 45.3751 115.642 45.5114C115.649 45.6476 115.652 45.7916 115.652 45.9443C115.652 46.184 115.646 46.3985 115.635 46.5879C115.624 46.7773 115.602 46.9754 115.57 47.1832C115.538 47.391 115.494 47.5727 115.438 47.7282C115.382 47.8848 115.307 48.0346 115.213 48.1795C115.118 48.3245 115.006 48.4434 114.878 48.5371C114.748 48.6308 114.592 48.7052 114.409 48.7603C114.225 48.8154 114.019 48.8425 113.789 48.8425C113.56 48.8425 113.353 48.8154 113.169 48.7603C112.985 48.7052 112.83 48.6308 112.703 48.5371C112.574 48.4434 112.464 48.3245 112.37 48.1795C112.275 48.0346 112.201 47.8838 112.147 47.7282C112.091 47.5727 112.048 47.391 112.014 47.1832C111.981 46.9754 111.959 46.7773 111.949 46.5879C111.936 46.3995 111.931 46.1849 111.931 45.9453ZM112.582 45.8438C112.582 46.1878 112.591 46.4797 112.609 46.7184C112.627 46.9571 112.66 47.1813 112.711 47.3919C112.76 47.6036 112.829 47.7708 112.917 47.8935C113.005 48.0172 113.122 48.1138 113.265 48.1834C113.409 48.254 113.583 48.2878 113.787 48.2878C113.958 48.2878 114.107 48.2655 114.235 48.2211C114.362 48.1757 114.471 48.1051 114.56 48.0075C114.65 47.9099 114.723 47.7978 114.78 47.6703C114.838 47.5427 114.883 47.3823 114.914 47.189C114.946 46.9957 114.969 46.7957 114.982 46.5879C114.994 46.3802 115 46.1347 115 45.8496C115 45.5877 114.99 45.351 114.97 45.1413C114.949 44.9316 114.91 44.7306 114.855 44.5363C114.799 44.343 114.726 44.1817 114.635 44.0531C114.544 43.9246 114.426 43.8222 114.28 43.7458C114.135 43.6695 113.965 43.6318 113.772 43.6318C113.582 43.6318 113.418 43.6705 113.278 43.7458C113.137 43.8212 113.023 43.9236 112.935 44.0512C112.847 44.1788 112.776 44.3392 112.723 44.5325C112.669 44.7257 112.633 44.9267 112.612 45.1355C112.592 45.3461 112.582 45.5819 112.582 45.8438Z" fill="#3A3845"/>
<path d="M116.245 48.1619H116.62C116.867 47.7396 117.029 47.27 117.104 46.752C117.18 46.234 117.218 45.517 117.218 44.6008V43.189H120.207V48.1619H120.655V50H120.059V48.7118H116.844V50H116.247V48.1619H116.245ZM117.293 48.1619H119.582V43.7437H117.841V45.1778C117.841 46.435 117.658 47.4304 117.293 48.1619Z" fill="#3A3845"/>
<path d="M120.94 43.189H121.606L122.923 47.0235L124.128 43.189H124.779L123.23 47.7966C123.1 48.189 122.954 48.4625 122.79 48.6142C122.626 48.7669 122.424 48.8432 122.184 48.8432C121.978 48.8432 121.819 48.82 121.705 48.7727V48.2218C121.795 48.2663 121.934 48.2885 122.123 48.2885C122.237 48.2885 122.33 48.2528 122.402 48.1803C122.474 48.1078 122.54 47.9706 122.601 47.7686L120.94 43.189Z" fill="#3A3845"/>
<path d="M18.641 39.4386C18.2005 39.4386 17.757 39.4183 17.3086 39.3806C18.6687 38.2645 19.6525 37.101 20.6047 35.9732C21.943 34.3874 23.3279 32.7494 25.7853 31.1877C29.6395 28.737 33.8561 27.9359 34.9644 27.761C34.7224 28.8771 33.4502 33.3002 27.9554 36.755C26.6733 37.5619 23.1965 39.4386 18.641 39.4386Z" fill="#3A3845"/>
<path d="M22.791 32.2546C24.4829 29.2589 25.5013 26.2158 25.8253 23.1949C28.5583 20.3219 31.323 18.5409 34.9717 17.3909C34.6151 19.4396 33.8437 22.1551 33.1632 23.7225C32.7671 24.6416 32.1626 25.6398 31.5788 26.6091C31.2835 27.0981 30.9961 27.5726 30.7491 28.0142C28.2521 28.4781 25.607 29.8909 22.791 32.2546Z" fill="#3A3845"/>
<path d="M16.2606 39.1101C13.6846 35.3016 12.4519 30.752 11.8721 27.5803C11.1748 23.7796 11.4504 19.9827 12.7157 15.9723C13.895 12.2305 19.2179 3.54376 20.2639 1.85938C21.226 3.50414 25.8881 11.9715 25.2095 20.3538C24.5952 27.9717 21.1717 35.1325 16.2606 39.1101Z" fill="#3A3845"/>
<path d="M10.519 24.943C9.86119 18.2393 13.175 12.0381 13.8526 11.0621C10.2375 5.31698 5.75912 1.03498 3.76983 0C3.67006 1.26498 2.98458 4.22594 2.37317 6.86801C2.12426 7.94165 1.8951 8.92638 1.73904 9.66082L1.32123 11.5771C0.391771 15.7915 -0.413233 19.4366 0.233733 24.0946C1.19875 31.0689 6.18187 36.2921 14.2586 38.7998L15.0488 39.0211C12.7029 35.2629 11.0198 30.0484 10.519 24.943ZM12.6575 37.6962C2.67146 33.5515 0.476716 19.2782 2.67146 9.18053C2.7248 8.93991 -0.234454 31.8429 12.8274 37.5426C13.0279 37.6325 12.9488 37.818 12.6575 37.6962Z" fill="#3A3845"/>
<path d="M25.4296 12.586C25.4296 12.586 26.1378 10.8484 28.5459 9.75062C30.316 8.9437 31.1091 8.97365 31.1091 8.97365C31.1595 11.5693 31.2573 13.2354 30.7446 15.5373C30.2982 17.5347 29.3618 19.511 26.0391 21.5433C26.0391 21.5433 26.6801 17.6285 25.4296 12.586Z" fill="#3A3845"/>
</svg>
