<svg width="168" height="50" viewBox="0 0 168 50" fill="none" xmlns="http://www.w3.org/2000/svg">
<path d="M109.266 43.9319L111.142 41.4296V43.9319H111.716V40.5721H111.142L109.266 43.0745V40.5721H108.691V43.9319H109.266ZM104.893 43.9319L106.748 41.4296V43.9319H107.323V40.5721H106.748L104.866 43.0745V40.5721H104.291V43.9319H104.893ZM101.355 43.9319H101.957V41.1456H103.435V40.5856H101.382L101.355 43.9319ZM97.3645 42.2511C97.3466 42.0113 97.4014 41.7717 97.5213 41.565C97.6412 41.3583 97.8204 41.1946 98.0344 41.0961C98.2479 40.9988 98.486 40.973 98.7146 41.0226C98.9433 41.0721 99.1508 41.1945 99.3076 41.3721C99.4128 41.4889 99.4935 41.6282 99.5435 41.7801C99.5952 41.9311 99.6154 42.092 99.6031 42.252C99.618 42.4866 99.5609 42.7202 99.4401 42.92C99.3192 43.1198 99.1404 43.2759 98.9288 43.3666C98.7889 43.426 98.6383 43.4545 98.4869 43.4502C98.3355 43.4536 98.185 43.4246 98.0452 43.365C97.9054 43.3055 97.7793 43.2166 97.6749 43.1041C97.5693 42.9912 97.4873 42.8574 97.434 42.7109C97.3806 42.5644 97.3569 42.4073 97.3645 42.2511ZM96.7559 42.2511C96.7488 42.606 96.8443 42.9551 97.0303 43.2545C97.2162 43.5539 97.4845 43.7902 97.8011 43.9337C98.1159 44.0749 98.4649 44.1162 98.8034 44.0506C99.1419 43.9859 99.4532 43.8169 99.6996 43.5679C99.8828 43.3804 100.023 43.1538 100.112 42.9043C100.2 42.6547 100.233 42.3883 100.21 42.124C100.186 41.8597 100.106 41.604 99.9756 41.3749C99.8448 41.1458 99.6665 40.9491 99.4532 40.7986C99.1682 40.5998 98.8316 40.4933 98.4869 40.493C98.2587 40.48 98.0303 40.5166 97.8168 40.6002C97.6033 40.6838 97.4094 40.8127 97.2478 40.9784C97.0845 41.1444 96.9565 41.3432 96.8718 41.5624C96.7872 41.7816 96.7477 42.0155 96.7559 42.2511ZM95.0451 43.9319H95.6195V40.5721H93.3677L93.3063 41.6138C93.2309 43.1733 92.7661 43.4142 92.5197 43.3935L92.5601 43.9814C93.2449 43.9814 93.7237 43.6488 93.8675 41.7343V41.168H95.0109L95.0451 43.9319ZM88.8851 42.2511C88.8667 42.0113 88.9211 41.7714 89.0409 41.5645C89.1607 41.3576 89.3399 41.1937 89.5541 41.0952C89.6963 41.0307 89.8501 40.9974 90.0055 40.9974C90.161 40.9973 90.3148 41.0307 90.457 41.0951C90.5992 41.1596 90.7266 41.2539 90.8312 41.3719C90.9357 41.4898 91.0151 41.6289 91.0641 41.7801C91.1158 41.9311 91.1351 42.092 91.1228 42.252C91.1335 42.4075 91.1124 42.5636 91.0608 42.7103C91.0093 42.8569 90.9284 42.9909 90.8234 43.1037C90.7184 43.2165 90.5916 43.3055 90.4511 43.3652C90.3106 43.4249 90.1595 43.4538 90.0075 43.4502C89.8561 43.4536 89.7056 43.4246 89.5658 43.365C89.426 43.3055 89.2999 43.2166 89.1955 43.1041C89.0899 42.9912 89.0079 42.8574 88.9546 42.7109C88.9012 42.5644 88.8775 42.4073 88.8851 42.2511ZM88.2765 42.2511C88.2692 42.6071 88.3647 42.9573 88.551 43.2578C88.7377 43.5571 89.0052 43.7926 89.3209 43.9337C89.6365 44.0753 89.9865 44.1161 90.3251 44.0508C90.6637 43.9856 90.9753 43.8173 91.2193 43.5679C91.4653 43.317 91.6336 42.9972 91.7032 42.6487C91.7727 42.3001 91.7404 41.9383 91.6104 41.6085C91.4809 41.28 91.259 40.9984 90.9729 40.7995C90.6883 40.6006 90.3519 40.4941 90.0075 40.4939C89.7787 40.4799 89.5497 40.5154 89.3353 40.5983C89.1209 40.6812 88.9259 40.8094 88.7632 40.9748C88.5993 41.141 88.4708 41.3402 88.3858 41.5599C88.3009 41.7796 88.2612 42.015 88.2695 42.2511H88.2765ZM84.6217 41.1456H85.8125V43.9104H86.3868V41.1456H87.5846V40.5505H84.6287L84.6217 41.1456ZM82.3558 41.0323C82.5375 41.0153 82.7198 41.0584 82.8759 41.155C83.0321 41.2517 83.154 41.3971 83.2239 41.5698C83.2713 41.684 83.295 41.808 83.2941 41.9329H81.322C81.3483 41.6732 81.4711 41.4341 81.664 41.266C81.856 41.0988 82.105 41.0143 82.3558 41.0323ZM83.4782 43.096C83.2022 43.3365 82.8485 43.4627 82.4865 43.4502C82.3471 43.463 82.2065 43.4466 82.0735 43.4021C81.9404 43.3576 81.8175 43.2859 81.7122 43.1913C81.6058 43.0965 81.519 42.9809 81.4568 42.8512C81.3946 42.7216 81.3583 42.5805 81.3501 42.4363H83.8483C83.8613 42.3042 83.8613 42.1711 83.8483 42.039C83.8571 41.7302 83.7732 41.4261 83.6079 41.1677C83.4426 40.9094 83.2039 40.7093 82.924 40.5946C82.7391 40.5202 82.5412 40.4859 82.3427 40.4939C82.1175 40.4981 81.8953 40.5481 81.6891 40.6409C81.4828 40.7338 81.2967 40.8678 81.1414 41.035C80.8247 41.3745 80.6516 41.8285 80.6598 42.2981C80.668 42.7678 80.8568 43.2151 81.1852 43.5428C81.3462 43.704 81.5369 43.8309 81.7461 43.9161C81.9553 44.0012 82.179 44.043 82.4041 44.0389C82.8486 44.0497 83.2809 43.8933 83.6229 43.5985L83.4782 43.096ZM76.094 43.9319H76.6754V41.479L77.839 43.0457L78.9614 41.479V43.9328H79.5367V40.5712H79.0298L77.846 42.2376L76.6342 40.5721H76.1081L76.094 43.9319ZM74.8007 43.0178C74.6852 43.1546 74.5422 43.2641 74.3813 43.3386C74.2206 43.4131 74.0459 43.4509 73.8694 43.4493C73.7173 43.4533 73.5658 43.4262 73.424 43.3695C73.2822 43.3129 73.1528 43.2279 73.0434 43.1194C72.8213 42.8987 72.6928 42.5973 72.6856 42.2803C72.6784 41.9634 72.793 41.6562 73.0048 41.4251C73.1093 41.3115 73.2347 41.2202 73.3737 41.1565C73.5128 41.0927 73.6628 41.0579 73.815 41.0539C74.157 41.0413 74.4929 41.1689 74.7454 41.408L75.0129 40.9334C74.8384 40.7769 74.6355 40.6574 74.4158 40.5818C74.196 40.5062 73.9638 40.476 73.7326 40.493C73.5075 40.4998 73.286 40.5524 73.0808 40.6476C72.8757 40.7428 72.691 40.8787 72.5374 41.0476C72.2247 41.3905 72.0564 41.846 72.069 42.3152C72.0817 42.7845 72.2742 43.2297 72.605 43.5544C72.9347 43.878 73.3748 44.0515 73.8282 44.038C74.0635 44.047 74.2978 44.0013 74.5134 43.9043C74.729 43.8073 74.9205 43.6616 75.0734 43.478L74.8007 43.0178ZM68.2986 42.252C68.3039 42.024 68.375 41.8028 68.5028 41.6161C68.6306 41.4294 68.8094 41.2857 69.0168 41.2031C69.2227 41.1203 69.4481 41.1025 69.6639 41.1518C69.8798 41.2011 70.0765 41.3154 70.2286 41.4799C70.3436 41.6034 70.4308 41.7511 70.4841 41.9128C70.5374 42.0746 70.5555 42.2463 70.5371 42.4159C70.5187 42.5855 70.4643 42.749 70.3777 42.8947C70.2911 43.0405 70.1743 43.1651 70.0357 43.2596C69.8516 43.3855 69.635 43.4511 69.414 43.4502C69.2628 43.4533 69.1127 43.424 68.9732 43.3643C68.8337 43.3045 68.7079 43.2156 68.6038 43.1032C68.4986 42.9905 68.4172 42.8567 68.3647 42.7102C68.3122 42.5638 68.2897 42.4078 68.2986 42.252ZM67.683 42.252C67.6759 42.6077 67.7714 42.9576 67.9575 43.2578C68.1443 43.5571 68.4117 43.7926 68.7274 43.9337C69.043 44.0755 69.393 44.1165 69.7317 44.0512C70.0704 43.9859 70.382 43.8175 70.6258 43.5679C70.8717 43.3169 71.04 42.9971 71.1095 42.6486C71.1791 42.3001 71.1469 41.9383 71.0169 41.6085C70.8874 41.2802 70.6659 40.9987 70.3803 40.7995C70.0954 40.6006 69.7587 40.4941 69.414 40.4939C69.1859 40.4806 68.9577 40.5168 68.7441 40.6002C68.5306 40.6835 68.3367 40.8121 68.175 40.9775C68.0113 41.1434 67.8831 41.3424 67.7984 41.5618C67.7137 41.7812 67.6744 42.0162 67.683 42.252ZM64.179 43.9328H64.7534V40.5712H64.179V43.9328ZM67.0534 40.5712H66.259L64.8911 42.2161L66.3686 43.9328H67.1701L65.6092 42.1738L67.0534 40.5721V40.5712ZM58.8406 43.9328L60.6882 41.4296V43.9319H61.2634V40.5721H60.6882L58.8406 43.0745V40.5721H58.2654V43.9319L58.8406 43.9328ZM136.45 35.3894L138.325 32.8861V35.3894H138.914V32.0287H138.339L136.464 34.531V32.0287H135.888V35.3894H136.45ZM132.077 35.3894L133.958 32.8861V35.3894H134.534V32.0287H133.958L132.07 34.531V32.0287H131.495V35.3894H132.077ZM128.538 35.3894H129.114V32.5536H130.591V31.9936H128.538V35.3894ZM125.732 32.5104C125.879 32.5054 126.025 32.533 126.16 32.5913C126.296 32.6497 126.417 32.7374 126.516 32.8484C126.616 32.9597 126.692 33.0914 126.738 33.2349C126.785 33.3783 126.801 33.5303 126.786 33.6807C126.799 33.8393 126.779 33.999 126.728 34.1493C126.677 34.2996 126.596 34.4373 126.49 34.5535C126.384 34.6686 126.256 34.7595 126.114 34.8204C125.971 34.8813 125.818 34.9107 125.664 34.9067C125.354 34.917 125.05 34.8253 124.795 34.6452V32.9787C124.909 32.8356 125.051 32.7195 125.213 32.6388C125.375 32.5581 125.552 32.5137 125.732 32.5104ZM124.22 36.8923H124.795V35.233C125.074 35.3966 125.391 35.4775 125.712 35.4667C125.941 35.4723 126.168 35.4288 126.379 35.339C126.59 35.2492 126.78 35.1151 126.938 34.9454C127.097 34.7752 127.22 34.5732 127.3 34.3521C127.38 34.131 127.415 33.8954 127.402 33.66C127.44 33.3328 127.376 33.0015 127.219 32.7142C127.061 32.4268 126.819 32.1984 126.526 32.0619C126.332 31.9732 126.122 31.9281 125.91 31.9298C125.704 31.928 125.499 31.9691 125.308 32.0507C125.118 32.1322 124.945 32.2526 124.801 32.4044V32.0071H124.227L124.22 36.8923ZM123.289 32.0358H122.604L121.852 34.1625C121.797 34.3468 121.743 34.5175 121.701 34.6802L121.509 34.1697L120.552 32.043H119.867L121.428 35.4029L121.352 35.588C121.14 36.1265 120.935 36.3458 120.667 36.3458C120.541 36.3366 120.418 36.3005 120.305 36.2397L120.12 36.6936C120.3 36.8266 120.516 36.8986 120.736 36.8995C121.194 36.8995 121.496 36.6082 121.975 35.4029L123.289 32.0358ZM117.615 32.5176C117.762 32.5124 117.908 32.5399 118.043 32.5983C118.179 32.6566 118.3 32.7444 118.399 32.8556C118.499 32.967 118.574 33.0987 118.621 33.2421C118.667 33.3856 118.684 33.5375 118.669 33.6879C118.687 33.927 118.631 34.1658 118.509 34.3705C118.388 34.5752 118.206 34.7355 117.99 34.8285C117.848 34.8897 117.695 34.9184 117.541 34.9139C117.231 34.922 116.927 34.8302 116.671 34.6515V32.9787C116.786 32.8357 116.93 32.72 117.093 32.6393C117.256 32.5586 117.434 32.515 117.615 32.5113V32.5176ZM116.096 36.8923H116.671V35.233C116.95 35.3966 117.268 35.4775 117.588 35.4667C117.816 35.4721 118.044 35.4286 118.255 35.3388C118.466 35.249 118.657 35.115 118.815 34.9454C118.973 34.7747 119.096 34.5727 119.176 34.3517C119.256 34.1307 119.29 33.8954 119.279 33.66C119.304 33.4419 119.284 33.2207 119.22 33.011C119.156 32.8013 119.049 32.6077 118.908 32.443C118.766 32.28 118.592 32.1499 118.398 32.0614C118.203 31.9728 117.993 31.928 117.78 31.9298C117.573 31.927 117.368 31.9677 117.177 32.0494C116.987 32.131 116.814 32.2518 116.671 32.4044V32.0071H116.096V36.8923ZM112.305 35.3957L114.179 32.8933V35.3966H114.762V32.0287H114.179L112.305 34.531V32.0287H111.729V35.3894L112.305 35.3957ZM110.668 32.0358H109.984L109.094 33.305L108.211 32.0358H107.527L108.684 33.6879L107.432 35.3894H108.116L109.081 34.0564L110.033 35.4173H110.717L109.485 33.652L110.668 32.0358ZM102.299 30.3128C102.293 30.4582 102.318 30.6032 102.372 30.7378C102.426 30.8724 102.508 30.9934 102.612 31.0925C102.716 31.1915 102.84 31.2663 102.975 31.3117C103.11 31.3571 103.253 31.372 103.394 31.3554C103.532 31.3664 103.67 31.3475 103.801 31.2998C103.931 31.2521 104.05 31.1767 104.15 31.0786C104.251 30.9803 104.331 30.8614 104.385 30.7295C104.438 30.5976 104.464 30.4556 104.461 30.3128H103.921C103.921 30.7101 103.709 30.9015 103.394 30.9015C103.079 30.9015 102.867 30.7101 102.84 30.3128H102.299ZM102.408 35.3894L104.29 32.8861V35.3894H104.865V32.0287H104.29L102.408 34.531V32.0287H101.833V35.3894H102.408ZM97.8503 33.7086C97.8389 33.5491 97.8591 33.3889 97.9098 33.2377C97.9604 33.0865 98.0404 32.9473 98.1449 32.8286C98.2499 32.7118 98.3773 32.6184 98.5192 32.5542C98.661 32.49 98.8141 32.4565 98.9691 32.4556C99.1243 32.4554 99.2778 32.4884 99.4198 32.5527C99.5618 32.6169 99.689 32.7109 99.7934 32.8286C99.899 32.9468 99.9796 33.086 100.03 33.2376C100.081 33.3891 100.101 33.5498 100.088 33.7095C100.102 33.944 100.045 34.1773 99.9243 34.377C99.8035 34.5767 99.625 34.7329 99.4137 34.824C99.274 34.883 99.1237 34.9112 98.9727 34.9067C98.8211 34.9102 98.6706 34.8812 98.5306 34.8216C98.3906 34.762 98.2643 34.6732 98.1598 34.5607C98.0543 34.4478 97.9724 34.3139 97.9191 34.1674C97.8659 34.0209 97.8425 33.8647 97.8503 33.7086ZM97.2408 33.7086C97.2382 34.0636 97.3373 34.4115 97.5258 34.7081C97.7143 35.0047 97.9835 35.2375 98.2992 35.375C98.6149 35.5136 98.9639 35.5517 99.301 35.4846C99.638 35.4174 99.9477 35.2481 100.19 34.9984C100.434 34.7482 100.601 34.4296 100.669 34.0825C100.738 33.7348 100.705 33.3741 100.576 33.0452C100.446 32.7173 100.226 32.4358 99.9407 32.2363C99.6574 32.038 99.3227 31.9312 98.9797 31.9298C98.7515 31.9167 98.5231 31.953 98.3095 32.0364C98.0959 32.1197 97.9018 32.2481 97.7398 32.4134C97.5762 32.5793 97.448 32.7783 97.3633 32.9977C97.2786 33.2171 97.2393 33.4521 97.2478 33.6879L97.2408 33.7086ZM93.7438 35.3894H94.3252V32.0287H93.7438V35.3894ZM96.5911 32.0287H95.7966L94.4278 33.6735L95.8931 35.3894H96.6936L95.1328 33.6385L96.5911 32.0287ZM92.4846 34.4744C92.3673 34.6106 92.2231 34.7196 92.0614 34.7942C91.8998 34.8687 91.7245 34.9071 91.5473 34.9067C91.3951 34.9104 91.2437 34.8831 91.1019 34.8263C90.9601 34.7695 90.8307 34.6844 90.7212 34.576C90.4994 34.3551 90.371 34.0538 90.3638 33.7369C90.3566 33.42 90.4711 33.1129 90.6827 32.8816C90.8949 32.6515 91.1851 32.5185 91.492 32.5104C91.8358 32.4969 92.1707 32.6246 92.4233 32.8655L92.6898 32.3981C92.5166 32.2393 92.314 32.1178 92.0941 32.0409C91.8741 31.964 91.6414 31.9333 91.4096 31.9505C91.1844 31.9569 90.9628 32.0093 90.7576 32.1045C90.5524 32.1997 90.3677 32.3359 90.2144 32.505C89.9831 32.762 89.8298 33.0824 89.7731 33.4271C89.7165 33.7719 89.7589 34.1261 89.8952 34.4465C90.0795 34.8744 90.4221 35.2097 90.8475 35.3786C91.058 35.4622 91.2816 35.5018 91.506 35.4955C91.7424 35.5044 91.9777 35.4588 92.1944 35.3618C92.4112 35.2649 92.6039 35.1192 92.7582 34.9355L92.4846 34.4744ZM87.3111 32.5104C87.4926 32.4937 87.6747 32.5368 87.8306 32.6335C87.9866 32.7301 88.1084 32.8754 88.1783 33.0479C88.226 33.1627 88.2499 33.2863 88.2484 33.4111H86.2158C86.2439 33.1522 86.3658 32.914 86.5578 32.7459C86.7507 32.5787 86.9989 32.4943 87.2488 32.5104H87.3111ZM88.3852 34.5526C88.1046 34.7926 87.7495 34.9184 87.3856 34.9067C87.2464 34.9206 87.106 34.9049 86.973 34.8609C86.8399 34.8168 86.7171 34.7452 86.6122 34.6506C86.5061 34.5555 86.4199 34.4395 86.3587 34.3094C86.2975 34.1794 86.2627 34.038 86.2562 33.8937H88.7474C88.8337 33.5468 88.8027 33.18 88.6594 32.8535C88.516 32.527 88.2688 32.2599 87.9582 32.0961C87.7531 31.9897 87.5269 31.9328 87.297 31.9298C87.072 31.918 86.8472 31.9558 86.6376 32.0404C86.428 32.125 86.2384 32.2547 86.0817 32.4205C85.9237 32.5875 85.8015 32.7865 85.7231 33.0048C85.6447 33.2231 85.6118 33.4558 85.6266 33.6879C85.6107 33.9276 85.6448 34.1679 85.7264 34.3931C85.808 34.6182 85.9354 34.823 86.1001 34.9939C86.2646 35.1629 86.463 35.2933 86.6814 35.3762C86.8998 35.459 87.1332 35.4924 87.3654 35.4739C87.8091 35.4838 88.2423 35.3283 88.5834 35.0344L88.3852 34.5526ZM84.477 32.0287H83.9018V33.5603C83.6782 33.7041 83.4195 33.7778 83.1564 33.7724C82.718 33.7724 82.4725 33.5171 82.4725 32.9787V32.0287H81.856V33.0425C81.856 33.9144 82.2331 34.3324 83.0126 34.3324C83.33 34.3369 83.6431 34.2515 83.9158 34.0843V35.3894H84.491L84.477 32.0287ZM78.2494 35.3894L80.1312 32.8861V35.3894H80.7406V32.0287H80.1654L78.2836 34.531V32.0287H77.7084V35.3894H78.2494ZM73.7861 32.639H74.9778V35.4029H75.553V32.6381H76.7438V32.043H73.787V32.6381L73.7861 32.639ZM72.747 34.4888C72.631 34.6249 72.4878 34.734 72.3272 34.8085C72.1665 34.8831 71.9921 34.9215 71.8158 34.9211C71.5089 34.9301 71.2125 34.8115 70.9889 34.593C70.7656 34.3733 70.6358 34.0721 70.6278 33.7549C70.6198 33.4377 70.7341 33.1301 70.9459 32.8987C71.1564 32.6677 71.4475 32.5338 71.7544 32.5248C72.0981 32.5113 72.4322 32.639 72.6848 32.8799L72.9522 32.4116C72.7804 32.2529 72.579 32.1315 72.3602 32.0547C72.1413 31.9779 71.9096 31.9474 71.679 31.9648C71.4537 31.9716 71.232 32.0241 71.0267 32.1193C70.8214 32.2145 70.6366 32.3505 70.4829 32.5194C70.1708 32.8625 70.0029 33.3178 70.0157 33.7868C70.0285 34.2557 70.2209 34.7007 70.5513 35.0254C70.881 35.349 71.3212 35.5224 71.7746 35.5098C72.0098 35.5183 72.2439 35.4724 72.4594 35.3754C72.675 35.2785 72.8665 35.133 73.0197 34.9499L72.747 34.4888ZM67.5796 34.9211C67.2034 34.9211 66.9982 34.709 66.9982 34.3899C66.9982 34.0708 67.3402 33.8362 67.6822 33.8362C67.9452 33.8236 68.2048 33.9009 68.4214 34.0564V34.4816C68.3222 34.6143 68.1948 34.7222 68.049 34.7971C67.9032 34.872 67.7427 34.9119 67.5796 34.9139V34.9211ZM66.786 32.745C67.0578 32.5787 67.3674 32.4934 67.6822 32.4969C68.3258 32.4969 68.4214 32.9284 68.4214 33.5603C68.1755 33.4104 67.8926 33.3364 67.6068 33.3472C66.9228 33.3472 66.3818 33.7302 66.3818 34.4178C66.3696 34.5577 66.387 34.6987 66.4327 34.8311C66.4784 34.9635 66.5513 35.0844 66.6466 35.1854C66.7414 35.2851 66.8562 35.3626 66.983 35.4124C67.1099 35.4622 67.2458 35.4832 67.3814 35.4739C67.5804 35.4845 67.7789 35.4456 67.96 35.3605C68.1411 35.2753 68.2994 35.1465 68.4214 34.9849V35.4173H68.9685V33.3472C68.9685 32.4754 68.6406 31.972 67.7164 31.972C67.3346 31.9701 66.9599 32.0782 66.6352 32.2839L66.786 32.745ZM64.692 35.3966H65.2664V32.0287H63.0145L62.9462 33.0713C62.8716 34.6308 62.406 34.878 62.1596 34.851L62.2069 35.4388C62.8909 35.4388 63.3644 35.1063 63.5074 33.1917L63.5486 32.6246H64.685L64.692 35.3966ZM60.5856 35.3966H61.16V32.0287H58.2312V35.3894H58.8397V32.5536H60.6128L60.5856 35.3966ZM159.007 11.8093H162.628V24.3858H164.387V11.8093H168V10.2364H159.007V11.8093ZM149.925 23.3162L147.29 29.5685H149.179L157.303 10.2355H155.428L150.87 21.1321L146.175 10.2355H144.313L149.925 23.3162ZM133.5 11.8093H137.113V24.3858H138.914V11.8093H142.534V10.2364H133.528L133.5 11.8093ZM119.066 10.2364V24.4146H119.286L129.243 14.042V24.3867H131.002V10.2067H130.866L120.825 20.7051V10.2364H119.066ZM107.562 11.8093H111.175V24.3858H112.907V11.8093H116.527V10.2364H107.562V11.8093ZM104.194 11.4201C103.548 10.9244 102.823 10.5454 102.052 10.2993C101.21 10.01 100.327 9.86426 99.4383 9.86783C98.074 9.84867 96.7279 10.1904 95.53 10.8601C94.3874 11.5005 93.4399 12.4524 92.7924 13.6106C92.1322 14.7698 91.7873 16.0893 91.7937 17.4315C91.7794 18.4026 91.9619 19.366 92.3294 20.2611C92.6964 21.1534 93.2412 21.9574 93.9289 22.6214C94.6409 23.3273 95.4838 23.8796 96.4078 24.2456C97.3296 24.6108 98.3138 24.7817 99.3015 24.7481C100.603 24.771 101.892 24.482 103.065 23.9041C104.134 23.3706 105.044 22.553 105.7 21.5365L104.331 20.5865C103.423 21.7791 102.134 22.6068 100.691 22.9252C99.2508 23.2408 97.7478 23.025 96.4473 22.3158C95.5726 21.8189 94.8497 21.0826 94.3594 20.1892C93.8643 19.302 93.6049 18.2972 93.607 17.2751C93.5954 16.5204 93.736 15.7713 94.0201 15.0748C94.3033 14.3803 94.7243 13.7537 95.2564 13.2349C95.8026 12.6853 96.4513 12.2543 97.1637 11.9675C97.8741 11.6811 98.6339 11.5453 99.3971 11.5684C100.354 11.5328 101.305 11.7413 102.164 12.1751C103.027 12.6103 103.771 13.2564 104.331 14.0564L105.7 13.1558C105.318 12.4769 104.808 11.8819 104.201 11.4048L104.194 11.4192V11.4201ZM86.6876 24.3858H88.4466V10.2085H86.6876V15.8235H78.7343V10.2364H76.9762V24.4155H78.7352V17.5745H86.6885V24.3876L86.6876 24.3858ZM72.7549 5.24512H72.3366L60.0796 20.1748V5.28736H58.2321V24.429H58.6495L70.8302 9.75278V24.4281H72.7531V5.24512H72.7549ZM23.5463 21.6426C23.9714 21.4963 24.421 21.4397 24.868 21.4763C25.315 21.5129 25.7501 21.642 26.1471 21.8556C26.6469 22.119 27.0775 22.5055 27.4002 22.9819C27.7232 23.4591 27.9277 24.0099 27.9958 24.5865C28.064 25.1631 27.9938 25.748 27.7913 26.2905C27.5901 26.832 27.2626 27.3147 26.8372 27.6963C26.4153 28.0768 25.9075 28.3438 25.3598 28.4731C24.8121 28.6024 24.2416 28.59 23.6998 28.4369C23.1573 28.2836 22.6603 27.9952 22.2529 27.5974C21.8435 27.1978 21.5359 26.7016 21.3567 26.1521C21.0761 25.2532 21.1489 24.2762 21.5584 23.4322C21.9656 22.5911 22.6799 21.9475 23.5463 21.6426ZM20.6859 26.3795C20.9464 27.2449 21.4695 28.0026 22.1792 28.5421C22.7044 28.9406 23.3154 29.2039 23.9606 29.3098C24.6058 29.4157 25.2664 29.3611 25.8867 29.1506C26.9332 28.7851 27.7962 28.0103 28.2876 26.9952C28.7824 25.9754 28.8689 24.7978 28.5287 23.7135C28.3657 23.1742 28.0998 22.6735 27.7465 22.2403C27.3949 21.8087 26.9626 21.4536 26.4751 21.1959C25.9957 20.9376 25.4704 20.7814 24.9306 20.7364C24.3909 20.6915 23.8478 20.7588 23.3341 20.9343C22.2893 21.3044 21.4285 22.0808 20.9376 23.096C20.4432 24.1161 20.3552 25.2932 20.6921 26.3786H20.6859V26.3795ZM45.0912 30.9366C44.9481 31.0439 44.7822 31.1147 44.6071 31.1431C44.4321 31.1716 44.2529 31.1568 44.0845 31.1002L32.1493 27.0239C31.9724 26.9621 31.8226 26.8379 31.7267 26.6734C31.6298 26.5083 31.5926 26.3136 31.6215 26.1233C31.6431 25.9312 31.7315 25.7534 31.8705 25.6226C32.0082 25.4925 32.1875 25.4184 32.3747 25.4141L42.792 25.2236L42.9419 25.06L42.7911 24.9045L32.4703 24.7058C32.2573 24.6994 32.0534 24.6156 31.895 24.4694C31.7355 24.3221 31.6315 24.122 31.6013 23.9041C31.5648 23.6855 31.6039 23.4608 31.7118 23.2686C31.8188 23.0771 31.9889 22.9306 32.1906 22.8551L41.9502 19.3101L42.0379 19.1196L41.8537 19.0126L31.9985 22.1531C31.7944 22.218 31.5743 22.2052 31.3786 22.1172C31.1824 22.0279 31.0238 21.8698 30.9314 21.6714V21.6219C30.8341 21.425 30.8061 21.1996 30.8521 20.984C30.8981 20.7683 31.0153 20.5755 31.1839 20.4382L39.3967 13.9081V13.6897L39.1915 13.6537L30.685 19.9357C30.5334 20.0455 30.3485 20.0958 30.1637 20.0777C29.979 20.0596 29.8068 19.9741 29.6783 19.8368C29.5448 19.6991 29.4633 19.5172 29.4483 19.3237C29.4334 19.1301 29.486 18.9373 29.5967 18.7798L36.9397 8.11061C37.0419 7.96173 37.177 7.83974 37.334 7.7546C37.4909 7.66946 37.6653 7.6236 37.8429 7.62074C39.2188 7.58256 40.5744 7.96626 41.7362 8.72272C42.9031 9.483 43.825 10.5796 44.3862 11.8749C44.8894 13.0535 45.0918 14.344 44.9745 15.6249L44.8307 17.0432C44.7971 17.3909 44.8332 17.7419 44.9368 18.0747C45.0404 18.4075 45.2093 18.715 45.4332 18.9784L46.3363 20.0274C47.1662 20.994 47.7391 22.1636 47.9998 23.4232C48.2764 24.833 48.1485 26.2947 47.6315 27.6315C47.1172 28.964 46.2342 30.1134 45.0912 30.9384V30.9366ZM36.1049 7.45805L28.7269 18.112C28.6206 18.2676 28.4629 18.3785 28.283 18.4241C28.1031 18.4698 27.9131 18.447 27.7483 18.36C27.5802 18.2738 27.4475 18.1292 27.3739 17.952C27.3 17.7737 27.2897 17.5745 27.3449 17.3893L30.3561 6.90437L30.2597 6.70573L30.0957 6.8046L26.7083 17.0423C26.6404 17.2499 26.5035 17.4265 26.3216 17.5412C26.1395 17.6561 25.9234 17.7004 25.7122 17.6661C25.501 17.6318 25.3088 17.5212 25.1703 17.3542C25.0299 17.1864 24.9516 16.9731 24.9493 16.752L24.7573 5.90486L24.6205 5.76285L24.4626 5.91834L24.2855 16.7655C24.2822 16.9855 24.2044 17.1974 24.0654 17.365C23.9269 17.5322 23.7357 17.6437 23.5261 17.6796C23.306 17.7291 23.0763 17.6904 22.8816 17.5727C22.6872 17.4538 22.5433 17.2646 22.4783 17.0423L19.1461 6.8046L18.9611 6.70573L18.8647 6.90347L21.8829 17.3749C21.9378 17.5607 21.9276 17.7603 21.8539 17.9391C21.7802 18.1179 21.6477 18.2646 21.4795 18.3538C21.3147 18.4407 21.1247 18.4635 20.9448 18.4179C20.7649 18.3722 20.6072 18.2613 20.5009 18.1057L13.1229 7.47153C13.0105 7.32278 12.9341 7.14895 12.8996 6.96418C12.8652 6.77942 12.8738 6.58893 12.9247 6.40821C13.182 5.41614 13.6456 4.49288 14.2838 3.70181C14.9197 2.91383 15.7158 2.27762 16.6163 1.83763C17.5139 1.39976 18.4944 1.16941 19.4884 1.16289C20.4824 1.15636 21.4657 1.37382 22.3687 1.79987L23.6217 2.38771C23.9254 2.53123 24.2558 2.60555 24.5902 2.60555C24.9246 2.60555 25.2551 2.53123 25.5587 2.38771L26.8039 1.80707C27.9223 1.27795 29.1589 1.06684 30.3842 1.19586C31.7507 1.37492 33.0351 1.96408 34.0758 2.88926C35.1216 3.81913 35.8796 5.0419 36.2566 6.40731C36.3105 6.58446 36.3236 6.77198 36.295 6.9552C36.2664 7.13842 36.1969 7.31237 36.0918 7.46345L36.1058 7.45625L36.1049 7.45805ZM12.2197 8.10971L19.5907 18.7447C19.699 18.9026 19.7507 19.0941 19.737 19.2866C19.7232 19.4791 19.6449 19.6608 19.5153 19.8009L19.4881 19.8782C19.3612 20.0177 19.1894 20.1054 19.0043 20.125C18.8193 20.1447 18.6335 20.095 18.4815 19.9851L9.92664 13.7113L9.72145 13.7463V13.9584L17.9895 20.5092C18.1589 20.6444 18.2774 20.8356 18.3249 21.0502C18.3724 21.2649 18.3459 21.4897 18.25 21.6866C18.1568 21.8844 17.9975 22.0413 17.801 22.1289C17.6046 22.217 17.3854 22.2277 17.181 22.1612L7.31968 18.9928L7.13466 19.0989L7.22323 19.2903L16.9899 22.8354C17.1907 22.91 17.3582 23.0556 17.466 23.2452C17.5739 23.4358 17.6133 23.6587 17.5783 23.8771C17.5481 24.0946 17.4445 24.2944 17.2854 24.4416C17.1268 24.588 16.9226 24.6718 16.7093 24.678L6.38142 24.8766L6.23148 25.033L6.38142 25.1948L16.8119 25.3871C16.9988 25.3924 17.1776 25.4668 17.3152 25.5966C17.4539 25.7273 17.5426 25.9046 17.5651 26.0963C17.5683 26.1102 17.5683 26.1247 17.5651 26.1386C17.594 26.3289 17.5567 26.5236 17.4599 26.6887C17.3642 26.853 17.2147 26.9772 17.0381 27.0392L5.12135 31.1073C4.94935 31.1691 4.76519 31.1865 4.58506 31.1582C4.40494 31.1298 4.23438 31.0565 4.08839 30.9447C2.94676 30.1169 2.06546 28.9659 1.55246 27.6324C1.03678 26.2946 0.909783 24.8324 1.1868 23.4223C1.45266 22.169 2.02473 21.0055 2.84936 20.0409L3.76658 18.9704C3.99118 18.7091 4.16015 18.4027 4.26267 18.0707C4.36519 17.7387 4.39901 17.3885 4.36198 17.0423L4.22518 15.624C4.06998 14.1591 4.33897 12.6799 4.99859 11.3707C5.60619 10.218 6.50787 9.25614 7.6073 8.58789C8.70205 7.92296 9.95373 7.5785 11.2262 7.59198H11.3288C11.5063 7.59473 11.6806 7.64046 11.8376 7.72544C11.9945 7.81042 12.1297 7.93223 12.2319 8.08095L12.2188 8.10881L12.2197 8.10971ZM4.70483 32.9518C4.75989 32.7684 4.85701 32.6012 4.98806 32.4642C5.11912 32.3272 5.28029 32.2244 5.45807 32.1644L17.3661 28.0953C17.5424 28.0374 17.7332 28.0463 17.9036 28.1205C18.0744 28.1948 18.214 28.3289 18.2973 28.4989C18.3833 28.6721 18.4084 28.8703 18.3685 29.0602C18.3286 29.2501 18.226 29.4201 18.0781 29.5416L9.76266 36.184V36.4042H9.96785L18.4411 30.1932C18.6138 30.0684 18.8242 30.0106 19.0347 30.0302C19.2451 30.0498 19.4419 30.1455 19.5898 30.3002C19.7408 30.4591 19.8336 30.6666 19.8525 30.8875C19.8714 31.1085 19.8151 31.3294 19.6933 31.5127L13.7796 40.4382L13.8147 40.6575H14.0199L20.2405 31.9298C20.3659 31.7536 20.5474 31.6296 20.7534 31.5801C20.9613 31.5339 21.1784 31.5638 21.3669 31.6646C21.5555 31.7654 21.7036 31.9308 21.7855 32.132C21.868 32.3361 21.8785 32.5635 21.8145 32.7747L18.8033 43.1527L18.8997 43.3441L19.1453 43.274L22.5677 32.923C22.6267 32.7402 22.7482 32.5854 22.9097 32.4871C23.0704 32.3896 23.2603 32.3557 23.4437 32.3918C23.6328 32.416 23.8067 32.5107 23.9321 32.6578C24.0583 32.806 24.1278 32.996 24.1277 33.1926V46.3786C24.1276 46.5641 24.0856 46.7471 24.005 46.9132C23.9243 47.0792 23.8073 47.2239 23.6629 47.3358H23.6278C22.6213 48.1532 21.4118 48.666 20.136 48.8162C18.8602 48.9665 17.5689 48.7482 16.4076 48.1861C15.1418 47.5288 14.0958 46.4996 13.4035 45.2299L12.7195 43.9823C12.5549 43.6798 12.3299 43.4164 12.0592 43.2093C11.7896 43.0031 11.4802 42.8582 11.1516 42.7841L9.81791 42.4938C8.43255 42.198 7.16608 41.4818 6.18325 40.4382C5.30787 39.4407 4.70951 38.2209 4.45054 36.9057C4.19008 35.5878 4.27787 34.2233 4.70483 32.9518ZM18.5095 27.1237C17.986 25.4312 18.1234 23.5965 18.8927 22.0057C19.2683 21.2219 19.792 20.5222 20.4334 19.9474C21.0723 19.3751 21.8165 18.9396 22.6221 18.6665C23.2649 18.4371 23.9407 18.3195 24.6213 18.3187C25.9838 18.3261 27.3082 18.7803 28.4007 19.6148C29.4995 20.4541 30.3111 21.6283 30.7192 22.9693C31.2479 24.6646 31.1078 26.5047 30.3289 28.0953C29.7683 29.2765 28.8748 30.2581 27.7641 30.9132C26.6579 31.5656 25.3847 31.8588 24.1126 31.7542C22.8404 31.6496 21.6291 31.152 20.6386 30.3272C19.6419 29.4981 18.9099 28.3825 18.5367 27.1237H18.5095ZM25.1545 33.207C25.1533 33.0154 25.2183 32.8295 25.3378 32.6821C25.4563 32.5355 25.6221 32.4373 25.8051 32.4053C25.9894 32.3713 26.1795 32.4071 26.34 32.5059C26.5005 32.6048 26.6206 32.7603 26.6811 32.9446L30.0957 43.274L30.2807 43.3729L30.3772 43.1814L27.3581 32.8313C27.2949 32.6156 27.3055 32.3837 27.3914 32.1752C27.4754 31.9698 27.6269 31.8011 27.8196 31.6983C28.0123 31.5955 28.234 31.5651 28.4463 31.6125C28.6567 31.6619 28.8435 31.7869 28.9733 31.9657L35.1816 40.5946H35.3929V40.3815L29.4801 31.519C29.358 31.3342 29.3021 31.1118 29.3221 30.8895C29.3421 30.6672 29.4367 30.459 29.5897 30.3002C29.7412 30.1358 29.9467 30.0347 30.1666 30.0165C30.3865 29.9982 30.6052 30.0641 30.7805 30.2013L39.2459 36.397H39.452L39.4169 36.1768L31.1023 29.5703C30.9488 29.4501 30.8412 29.2784 30.7986 29.0852C30.756 28.892 30.7809 28.6896 30.8691 28.5133C30.9542 28.3396 31.0973 28.2031 31.2725 28.1286C31.4478 28.054 31.6416 28.0477 31.8205 28.1097L43.7837 32.1572C43.9465 32.2199 44.093 32.3204 44.2116 32.4508C44.3302 32.5811 44.4179 32.7378 44.4677 32.9086V32.9518C44.8983 34.2191 44.9912 35.5836 44.7352 36.9012C44.4811 38.2164 43.888 39.4377 43.0174 40.4382C42.0521 41.4887 40.7994 42.2153 39.4239 42.5226L38.056 42.8273C37.7359 42.8992 37.4334 43.0385 37.1686 43.2372C36.9027 43.4367 36.6803 43.6908 36.5153 43.9832L35.8313 45.2371C35.3513 46.131 34.6881 46.9077 33.8873 47.5138C33.0899 48.1171 32.1735 48.5346 31.2023 48.7371C30.2326 48.9393 29.2314 48.9212 28.2692 48.6841C27.3053 48.4465 26.4037 47.9962 25.6271 47.3646H25.5921C25.4491 47.2519 25.3334 47.1068 25.2541 46.9408C25.1747 46.7748 25.1337 46.5922 25.1343 46.4073L25.1545 33.207ZM49.0327 23.203C48.733 21.7592 48.0755 20.4188 47.1238 19.311L46.2206 18.2621C46.0956 18.1156 46.0013 17.9443 45.9435 17.759C45.8858 17.5736 45.8657 17.378 45.8847 17.1844L46.0286 15.7669C46.1799 14.2931 45.9608 12.8041 45.3919 11.4417C44.7502 9.94641 43.6912 8.67918 42.3483 7.79961C41.0114 6.92456 39.4496 6.47944 37.8639 6.52146H37.4124L37.2756 6.06755C36.8412 4.49157 35.9652 3.08086 34.7563 2.0102C33.5539 0.94508 32.0701 0.269704 30.4929 0.0696137C29.0868 -0.0754235 27.6686 0.169511 26.3865 0.778796L25.1413 1.36034C24.9716 1.43543 24.7887 1.47417 24.6038 1.47417C24.4189 1.47417 24.236 1.43543 24.0663 1.36034L22.8071 0.736551C21.7659 0.244264 20.6318 -0.00714627 19.4853 0.000154573C18.3387 0.00745542 17.2078 0.273288 16.1726 0.778796C15.1343 1.28646 14.2167 2.02055 13.4841 2.92971C12.7485 3.84278 12.2145 4.90837 11.9189 6.05317L11.7821 6.50708H11.3025C9.82885 6.48564 8.37799 6.88092 7.10923 7.6495C5.83491 8.42223 4.79068 9.53705 4.08927 10.8736C3.33582 12.3759 3.0265 14.0709 3.19924 15.7507L3.34304 17.1691C3.36292 17.3615 3.34339 17.556 3.28571 17.7401C3.22803 17.9243 3.13347 18.0941 3.00808 18.2387L2.03562 19.3173C1.09835 20.4276 0.45306 21.7647 0.160857 23.2021C-0.152629 24.8207 -0.00467794 26.4977 0.587019 28.0324C1.17628 29.5621 2.18609 30.8835 3.49387 31.8363L3.85602 32.1131L3.69818 32.5949C3.2171 34.0528 3.12685 35.6165 3.43687 37.1224C3.74547 38.625 4.44372 40.0146 5.45807 41.1447C6.55698 42.3604 7.98813 43.2081 9.56449 43.5769L10.8921 43.8744C11.075 43.9132 11.2474 43.9922 11.3975 44.1062C11.5476 44.2201 11.6716 44.3661 11.7611 44.5342L12.445 45.7889C13.2328 47.2413 14.4241 48.4209 15.8675 49.1776C17.2017 49.8444 18.6931 50.1097 20.1686 49.9426C21.644 49.7756 23.043 49.183 24.2031 48.2338L24.6205 47.9506L25.0177 48.2563C26.4318 49.3756 28.1653 49.9882 29.9519 50C31.119 50.0013 32.2702 49.7221 33.313 49.1847C34.7533 48.4241 35.9433 47.2455 36.7345 45.7961L37.4185 44.5342C37.5122 44.3653 37.6401 44.2191 37.7936 44.1052C37.9472 43.9914 38.1228 43.9127 38.3085 43.8744L39.6773 43.5769C41.254 43.2089 42.6854 42.3611 43.7837 41.1447C44.7836 40.0144 45.4697 38.6301 45.7708 37.1358C46.073 35.6387 45.98 34.0861 45.5015 32.6381L45.3437 32.1482L45.7067 31.8723C47.0132 30.9185 48.0215 29.5964 48.6092 28.0666C49.1999 26.5319 49.3469 24.8552 49.0327 23.2371" fill="#6CCC61"/>
</svg>
